<svg width="148" height="93" fill="none" xmlns="http://www.w3.org/2000/svg"><path d="M5.967 45.206c-.331-.096-.556-.202-.675-.32-.097-.118-.217-.353-.359-.703.056-.949.12-1.599.193-1.949a22.8 22.8 0 00.234-1.856c.08-.715.14-1.193.18-1.432l.584-1.57c.08-.715.3-1.734.662-3.056.26-1.054.496-1.925.707-2.61l.406-1.423c.243-1.01.483-1.827.722-2.451-.387-.005-.67-.041-.847-.11-.16-.09-.304-.248-.433-.47-.142-.351-.266-.853-.374-1.507.272-.284.552-.484.841-.598.287-.136.515-.212.685-.229l1.787-.788c2.884-.97 4.517-1.476 4.899-1.513.295-.051.518-.073.668-.067l.255-.025 1.946-.482c.164-.08.394-.135.691-.165.295-.05.494-.102.596-.155a.852.852 0 01.372-.134c.107-.01.224-.011.354-.002.15.006.312.012.484.016.29.121.51.271.655.45.145.157.287.4.426.73l-.042 1.193c-.06.049-.258.208-.596.477a8.074 8.074 0 01-1.052.747c-.386.21-.739.33-1.057.362a1.289 1.289 0 01-.52-.045c-.269-.123-.447-.191-.534-.204a.505.505 0 01-.203-.108l-.455-.373c-.179.146-.427.235-.746.266-.34.034-.6.103-.783.206-.444.066-1.122.25-2.036.556-.915.283-1.464.477-1.646.58l-.486 1.592a31.277 31.277 0 00-1.048 3.384l-1.237 4.72c-.1.29-.278.982-.533 2.08-.237 1.073-.353 1.739-.35 1.996-.012.301-.109.954-.288 1.957-.181.983-.263 1.677-.244 2.083a.733.733 0 01-.058.391 1.246 1.246 0 01-.105.236 1.8 1.8 0 01-.838.308c-.106.01-.373.015-.802.015zm14.303-2.638c-.21-.172-.393-.4-.55-.685a26.82 26.82 0 01-.556-1.392 1.799 1.799 0 01-.117-.535l-.054-.542a8.92 8.92 0 01-.255.669c-.106.225-.219.386-.338.483-.44.537-.892.946-1.358 1.228-.637.492-1.2.762-1.688.81-.594.06-1.131-.166-1.61-.676-.735-.485-1.14-1.11-1.215-1.874-.01-.106-.01-.31.004-.61-.035-.79-.004-1.555.094-2.293.12-.741.379-1.7.777-2.875l.766-2.005.412-1.038c.102-.053.27-.09.503-.114a2.4 2.4 0 01.974.097c.31.098.486.252.529.462.072.078.12.235.142.468.068.68-.13 1.61-.591 2.792l-.195.63c-.292.95-.498 1.69-.617 2.216-.12.526-.162.96-.129 1.299.034.34.183.55.449.63a.733.733 0 00.391.058c.425-.042.902-.421 1.431-1.138.55-.72 1.067-1.885 1.551-3.498a7.487 7.487 0 00.32-2.283c-.065-.229-.026-.49.116-.783a2.02 2.02 0 01.603-.735.782.782 0 01.322-.321c.14-.1.235-.11.286-.028l.506-.083c.062-.027.167.059.315.258.17.198.289.315.357.351.229.149.369.478.419.988.07.7-.09 1.691-.477 2.973-.32.89-.53 1.575-.633 2.056a5.834 5.834 0 00-.093 1.328c.044.446.11.793.2 1.041.107.226.322.45.645.676.363.2.555.738.578 1.615-.028.153-.133.281-.316.385a1.73 1.73 0 01-.688.197c-.467.046-.87-.021-1.21-.202zm13.755-12.552c.267.316.442.674.525 1.074.103.396.16.755.17 1.076.03.297.06.487.089.57-.128.87-.325 2.026-.59 3.467-.266 1.42-.382 1.978-.348 1.674-.024.196-.082.47-.176.822-.12.526-.195.952-.227 1.276-.026.389-.137.678-.332.87-.177.167-.448.354-.813.562l-.248.089a.916.916 0 01-.494-.112 833.54 833.54 0 00-.483-.338c-.214-.43-.33-.74-.35-.93-.019-.191.019-.463.112-.815a193.2 193.2 0 00.551-2.884c.207-1.157.388-2.14.544-2.948l.17-.885c.045-.412.043-.755-.005-1.029-.109-.01-.333 0-.672.035-.425.041-.762.107-1.01.196a12.68 12.68 0 01-.543 2.305c-.245.774-.65 1.886-1.214 3.335a15.142 15.142 0 01-1.097 2.231l-.332.548-1.036 1.228-.912.862a.825.825 0 01-.395.232 1.193 1.193 0 01-.474.079l-.414.04c-.285-.057-.568-.21-.85-.462-.26-.252-.437-.407-.528-.462l-.197-.366c-.019-.191-.011-.331.023-.42.053-.113.175-.286.366-.52.124-.269.302-.415.536-.438a.973.973 0 01.29.003c.157-.144.394-.35.71-.617.315-.288.569-.538.762-.75a3.9 3.9 0 00.51-.694c.4-.726.882-1.706 1.445-2.94.23-.495.51-1.24.84-2.238l-.395-.09a9.668 9.668 0 01-.404-.185l-.553-1.36c-.052-.53.17-.885.667-1.063.374-.123.927-.274 1.66-.454a12.51 12.51 0 001.315-.355 3.525 3.525 0 011.006-.228 4.05 4.05 0 011.656.158c.443.149.825.432 1.145.85zm4.309 10.764c-.2-.066-.46-.105-.783-.116a3.471 3.471 0 01-.685-.093c-.176-.046-.369-.156-.579-.328a3.087 3.087 0 01-.757-.826 2.914 2.914 0 01-.333-1.092c-.025-.255-.023-.448.007-.58.045-.197.06-.37.045-.519a4.594 4.594 0 01.295-1.894c-.034.09.069-.275.31-1.092.245-.989.708-2.267 1.389-3.835l.702-1.678c.19-.468.528-.727 1.016-.775.404-.04.872.031 1.404.214.064.208.153.35.267.424.204.323.315.58.334.77a1.5 1.5 0 01.003.354c-.406.662-.714 1.24-.922 1.732.319-.246.69-.39 1.115-.432l.61.325c.523.291.865.504 1.029.638.018.191.117.428.295.71.294.593.463 1.101.505 1.526.13 1.316-.131 2.468-.784 3.454-.655.965-1.603 1.777-2.846 2.436-.163.08-.333.205-.51.372a7.059 7.059 0 00-.566.12c-.293.072-.48.134-.561.185zm-.214-2.809c.1-.074.284-.167.551-.28.29-.114.492-.23.609-.35.49-.455.852-.92 1.084-1.393.253-.475.401-1.036.444-1.684l-.08-.153a2.784 2.784 0 01-.916-.488 1.23 1.23 0 01-.375-.863l-.43 1.168c-.233.688-.428 1.532-.586 2.534-.064.435-.164.938-.3 1.51zm21.23-10.526c.371.284.592.788.664 1.51.073.743.02 1.605-.162 2.588a61.185 61.185 0 01-.736 3.288l-.188.694-.035.293c-.028.153-.027.378.002.675a6.533 6.533 0 00.212 1.17 9.052 9.052 0 01-.981.804l-.43-.118-.328-.064c-.18-.09-.281-.133-.302-.131-.393-.283-.607-.605-.643-.966l-.024-.576a1.269 1.269 0 00-.185-.56c.144-.937.395-2.184.756-3.741l.352-1.643-.17-.08a4.03 4.03 0 00-.363.55 2.18 2.18 0 01-.401.49c-.255.24-.574.7-.957 1.382l-.597 1.12c-.401.704-.98 1.469-1.734 2.294l-.752.846c-.309.352-.664.548-1.068.588-.7.07-1.338-.307-1.912-1.129a4.552 4.552 0 01.027-1.675c.113-.59.299-1.316.556-2.177l.326-1.254-.168-.08c-1.227 1.472-2.236 3.19-3.027 5.155-.105.246-.177.49-.218.73a8.554 8.554 0 01-.434 1.136 2.26 2.26 0 01-.666.74l-.22.055c-.312.095-.633-.013-.964-.323a3.968 3.968 0 01-.782-1.08c.096-.546.268-.97.517-1.273.06-.263.117-.44.172-.532a4.8 4.8 0 00.24-.506c.296-.908.764-1.909 1.407-3.001a17.617 17.617 0 012.241-3.02c.852-.92 1.679-1.56 2.48-1.917.303.034.61.11.922.23.31.098.52.163.63.195l.3.42c.148.2.24.48.276.841.054.552-.028 1.236-.247 2.05a30.362 30.362 0 01-.974 2.83l.168.08a107.79 107.79 0 001.48-2.269c.852-1.349 1.572-2.417 2.159-3.204.606-.81 1.231-1.419 1.877-1.826a.918.918 0 01.405-.136c.403-.04.903.135 1.499.527zm5.697 10.304a2.972 2.972 0 01-.567.12 4.307 4.307 0 01-.77.013c-.24-.04-.364-.103-.373-.188-.006-.064-.02-.105-.044-.125-.023-.019-.067-.025-.13-.019a3.176 3.176 0 00-.478-.274 2.52 2.52 0 00-.576-.297 2.011 2.011 0 01-.499-1.14c-.04-.404.024-1.064.19-1.98-.06-.83.145-1.784.617-2.86a14.867 14.867 0 011.85-3.076c.74-.974 1.42-1.685 2.04-2.132.287-.35.717-.553 1.29-.61.446-.044.848.013 1.207.17.293.143.668.47 1.126.982.48.51.847.977 1.104 1.402.057.144.13.34.219.59.11.246.183.55.219.91l.024.898c-.168.896-.218 1.694-.149 2.394-.013.302.033.544.137.727.101.16.227.234.375.22a.797.797 0 00.34-.13.99.99 0 01.437-.14c.276-.028.518.034.726.185a.82.82 0 01.35.609c.02.212-.012.419-.1.62-.149.444-.472.862-.969 1.254-.476.39-.937.607-1.382.651-.361.036-.73-.12-1.108-.469-.356-.35-.66-.824-.912-1.42l-.264-.714-1.042 1.164-.66.805c-.306.373-.477.594-.514.662-.089.18-.264.358-.526.534-.24.174-.636.395-1.188.664zm.557-3.142c.362-.25.654-.547.877-.89.244-.346.54-.826.886-1.439l.217-.407a2.91 2.91 0 01.275-.477c.312-.524.528-.942.647-1.254.14-.314.237-.645.288-.994a2.596 2.596 0 00-.458-.726c-.174-.24-.325-.364-.455-.373-.594.059-1.332.84-2.212 2.341-.091.16-.235.442-.43.847-.175.403-.288.672-.339.805-.091.16-.204.535-.339 1.127-.115.569-.164.938-.147 1.108.046.467.207.687.483.66.212-.022.448-.13.707-.328zm20.255-8.629c-.054.327-.16.659-.32.996-.16.338-.265.573-.316.707-.117.333-.209.6-.274.799a3.501 3.501 0 00-.147.465c.443.149.68.597.712 1.344l-.303.512-.985.451c-.049.37-.082.684-.1.943-.004.386-.079.93-.224 1.63l-.118.751c-.073.35-.189.587-.348.71-.138.12-.364.229-.676.324a22.57 22.57 0 01-.56-.137 3.185 3.185 0 01-.531-.173 1.685 1.685 0 01-.344-.223 1.078 1.078 0 01-.251-.586c-.02-.191.02-.549.119-1.073.173-.853.291-1.497.355-1.933l-.532.15a4.45 4.45 0 00-.723.168 3.509 3.509 0 00-.376.101c-.161.102-.496.178-1.006.228a5.76 5.76 0 01-1.124.015c-.032.11-.07.264-.115.462-.047.176-.1.406-.157.69-.085.438-.12.741-.103.911l-.042.873c-.025.174-.04.464-.042.872.023.448-.05.798-.218 1.05-.165.274-.397.426-.694.455-.489.048-1.083-.214-1.783-.788l-.171-.433.267-2.503c.03-.131.058-.274.086-.426.028-.153.044-.316.048-.488l.173-.853.253-1.022c.209-.92.39-1.582.543-1.983.055-.305.129-.645.22-1.018.114-.376.194-.641.243-.796.037-.068.128-.442.275-1.12.145-.701.249-1.172.31-1.414.128-.442.415-.684.861-.729a1.69 1.69 0 011.216.266c.365.221.578.532.64.934.008.085.012.234.011.448-.002.194-.021.324-.057.392l-1.131 3.842c.189-.04.42-.095.69-.165.27-.09.47-.142.597-.155a5.45 5.45 0 011.105-.206c.445-.044.799-.047 1.06-.008.09-.18.186-.501.29-.962.024-.195.092-.48.205-.856a7.606 7.606 0 01.543-1.662 2.2 2.2 0 00.039-.26c.008-.13.126-.453.354-.968.323-.204.622-.32.898-.347.425-.041.8.06 1.124.307.346.245.539.569.579.972.014.149 0 .322-.046.519zm5.654 9.891a1.483 1.483 0 01-.644 0c-.152-.028-.387-.123-.703-.285a4.796 4.796 0 01-1.31-1.22c-.35-.502-.532-.934-.547-1.297a.968.968 0 00.003-.29.972.972 0 00-.06-.283.966.966 0 01-.047-.156 1.945 1.945 0 01-.172-.112.285.285 0 01.02-.13.5.5 0 00.082-.137c.083-.03.121-.076.115-.14a.515.515 0 00-.086-.217c-.08-.163-.087-.549-.018-1.156.088-.63.222-1.222.403-1.776.13-.42.344-.967.642-1.64.319-.674.62-1.197.906-1.568.47-.668.86-1.168 1.17-1.499a4.317 4.317 0 011.14-.82 2.92 2.92 0 011.093-.333c.51-.05.97.054 1.381.313 1.244.22 2.042.806 2.393 1.757.172.433.285.926.34 1.478.117 1.189-.125 2.531-.728 4.027-.323.847-.66 1.555-1.01 2.126a9.069 9.069 0 01-1.257 1.603c-.35.357-.83.704-1.44 1.044a9.365 9.365 0 01-1.666.711zm2.294-5.083a8.38 8.38 0 00.555-1.212c.134-.378.235-.881.301-1.51a5.29 5.29 0 00.014-1.158c-.067-.68-.2-1.042-.397-1.086a1.131 1.131 0 00-.455-.052c-.446.044-.885.377-1.316.999-.436.579-.745 1.135-.928 1.667-.183.533-.368 1.376-.554 2.531A4.21 4.21 0 0091 31.997c.033.34.114.61.24.812.126.18.295.26.507.24.594-.06 1.28-.814 2.06-2.263zm8.874 3.752c-.161-.112-.285-.175-.372-.188a.524.524 0 00-.293-.035l-.389-.026c-.088-.248-.274-.605-.556-1.07a4.97 4.97 0 01-.454-.695 2.545 2.545 0 01-.168-.723c-.013-.127-.089-.248-.229-.363a3.242 3.242 0 00-.217-.236l.268-.22a.848.848 0 01-.133-.372.747.747 0 01.064-.328 2.838 2.838 0 01-.118-.535 5.757 5.757 0 01.037-1.258c.058-.499.092-.802.103-.91a7.93 7.93 0 00.061-.682c.034-.303.053-.541.058-.713a1.887 1.887 0 01-.379-.252 6.225 6.225 0 00-.318-.29c.013-.516.073-.886.18-1.111.104-.246.347-.495.729-.748l.287-.028c.234-.452.465-1.257.693-2.416.147-.68.36-1.343.639-1.993.3-.651.495-1.067.584-1.247.228-.73.643-1.522 1.244-2.374.6-.874 1.198-1.544 1.795-2.01.38-.274.705-.457.975-.548.291-.093.711-.177 1.261-.253.471.21.885.491 1.241.842.356.35.556.749.6 1.194l.048.478c.029.297.001.557-.084.78.019.191.006.385-.039.583a3.706 3.706 0 01-.092.363 4.837 4.837 0 01-.096.33 1.405 1.405 0 00-.026.39c-.554 1.555-1.092 2.723-1.615 3.503-.501.779-1.367 1.776-2.598 2.99.456.277.754.58.894.91.14.328.252.81.336 1.445.03.297.063.53.101.697.097.548.159.95.184 1.204.118 1.19-.019 2.296-.411 3.32-.334.741-.751 1.297-1.25 1.668s-1.175.685-2.029.94l-.516-.013zm4.283-19.106c-1.437 1.943-2.535 4.388-3.294 7.336a9.976 9.976 0 002.145-1.724c.642-.664 1.109-1.353 1.403-2.068.245-.56.329-1.223.254-1.987-.066-.658-.235-1.177-.508-1.558zM103.39 31.96c.524-.33.87-.74 1.036-1.228.185-.511.246-1.086.183-1.723-.055-.552-.196-1.224-.425-2.015a3.267 3.267 0 01-.174-.787c-.03-.083-.137-.19-.321-.322a8.085 8.085 0 01-.347-.255c-.236.216-.396.768-.48 1.655-.064.864-.053 1.731.033 2.602.086.87.217 1.436.393 1.697l.102.376zm6.45 1.13c-.077-.121-.274-.273-.592-.456-.318-.183-.48-.295-.484-.338-.008-.085-.073-.196-.194-.334a4.158 4.158 0 00-.299-.421c-.186-.153-.124-.717.187-1.69.311-.975.743-2.132 1.296-3.473.115-.14.252-.379.411-.716.181-.34.301-.534.361-.583a.306.306 0 01.073-.232c.055-.091.126-.141.21-.15l.205-.534c.066-.2.435-.697 1.106-1.492.672-.796 1.207-1.342 1.607-1.639a2.277 2.277 0 011.264-.543c.51-.05.96.055 1.35.317l.932.647c.69.468 1.081.74 1.174.816l1.283.935-.384 1.645a5.19 5.19 0 00-.126 1.653c.08.806.378 1.538.893 2.195.129.223.285.39.467.5.204.108.456.17.758.182.475.039.732.25.77.631.046.467-.004.826-.151 1.076-.147.25-.334.42-.561.506-.335.076-.567.12-.694.133a3.135 3.135 0 01-1.735-.31c-.541-.268-1.041-.766-1.498-1.492-.098-.119-.238-.341-.42-.666-.161-.327-.258-.553-.292-.678-.128.227-.345.527-.651.9-1.968 2.424-3.631 3.704-4.99 3.838a2.244 2.244 0 01-1.276-.227zm1.489-2.817c.344.01.964-.438 1.861-1.341.098-.096.205-.203.322-.322.115-.14.24-.28.376-.423.546-.547.963-.995 1.25-1.345.306-.374.606-.81.899-1.311l.587-1.216c-.258-.446-.48-.735-.665-.867-.186-.153-.364-.221-.534-.204-.425.042-.918.477-1.479 1.304-.563.806-1.215 2.017-1.955 3.634a6.353 6.353 0 00-.454 1.267c-.109.418-.178.693-.208.824zm16.688 2.754a2.293 2.293 0 01-.544-.3.644.644 0 01-.169-.401c-.021-.213.035-.518.167-.917.151-.422.408-1.08.769-1.974.1-.288.296-.8.588-1.537.74-1.831 1.069-3.16.988-3.989a.432.432 0 01-.051-.188c-.021-.212.13-.42.453-.623.057-.07.262-.273.615-.608.374-.337.658-.708.854-1.113.213-.665.494-1.4.843-2.206.347-.828.953-2.174 1.819-4.039.834-1.969 1.75-3.764 2.747-5.385.183-.318.393-.575.631-.77.259-.197.484-.305.675-.324.658-.065 1.352.124 2.082.566.751.44 1.258.904 1.521 1.393.099.14.173.454.222.943.065.658.101 1.78.108 3.365-.015.28-.015.72.002 1.318.031.962.036 1.99.016 3.086.002 2.4.016 4.275.042 5.623a47.59 47.59 0 00.213 3.774c.059.594.112 1.028.161 1.302l.022.223.041.736c-.115.14-.364.228-.746.266-.424.042-.856.01-1.296-.097-.437-.085-.686-.221-.747-.408a.393.393 0 00-.102-.054c-.045-.017-.076-.11-.092-.28l-.038-.704-.081-1.793-.323-4.888-.411.073c-.424.042-1.318.216-2.681.523-1.342.304-2.188.527-2.539.669-.191.019-.412.17-.663.451-.25.283-.462.636-.634 1.06-.043.219-.161.541-.355.968-.195.405-.29.64-.284.703a1.37 1.37 0 00-.315.385 2.928 2.928 0 00-.134.27c.023.234-.13.86-.458 1.879-.308.995-.634 1.82-.976 2.476l-.74 1.295-1.2-.75zm6.526-11.708l.879-.216c.438-.129.825-.22 1.163-.276.994-.355 1.682-.552 2.064-.59.212-.02.363-.014.452.02a.81.81 0 00.21.172.964.964 0 00.162.016c.026-.174.081-1.348.166-3.521.085-2.174.103-3.505.055-3.993a10.07 10.07 0 00-.117-.857c-.046-.252-.083-.41-.111-.471-.191.019-.576.571-1.154 1.658a29.606 29.606 0 00-1.637 3.602c-.402.92-.699 1.388-.89 1.407-.134.163-.403.694-.807 1.591-.404.898-.549 1.384-.435 1.458zm11.731 7.167c-.431.193-.763.3-.997.324-.361.036-.735-.066-1.123-.307-.35-.287-.541-.59-.573-.908-.052-.53.287-1.11 1.018-1.74.397-.319.712-.49.946-.512.17-.017.465.04.885.17.679.36 1.04.765 1.085 1.21.058.595-.355 1.183-1.241 1.763z" fill="#fff"/><path d="M71.613 1c.294.041.593.072.885.123 1.33.234 2.66.47 3.99.71.205.037.41.056.614.107.378.099.79.144 1.115.335a28.928 28.928 0 012.902 1.86c1.238.946 2.358 2.021 3.096 3.45.88 1.703 1.078 3.506.944 5.382-.088 1.231-.591 2.344-.94 3.489-.658 2.147-1.796 4.044-3.002 5.89-1.31 2.006-2.832 3.845-4.25 5.764-1.367 1.848-3.039 3.416-4.626 5.056a34.552 34.552 0 01-2.894 2.746 33.211 33.211 0 01-4.93 3.285c-1.263.706-2.524 1.418-3.79 2.118a3.505 3.505 0 00-1.48 1.513c-.546 1.081-1.081 2.167-1.635 3.243-.119.25-.289.473-.498.654a.613.613 0 01-.942-.238 1.856 1.856 0 01-.172-.716c-.037-.883-.04-1.77-.06-2.654a1.776 1.776 0 00-.026-.176h-.719c-.642.016-1.283.043-1.925.053a.391.391 0 00-.392.285c-.143.33-.327.645-.472.977-.204.493-.409.99-.613 1.49-.646 1.727-1.298 3.449-1.917 5.183-.408 1.129-.744 2.283-1.13 3.418-.151.45-.351.882-.564 1.406.732-.253 1.43-.41 2.064-.725 2.6-1.256 5.01-2.814 7.015-4.916 1.571-1.642 3.016-3.41 4.031-5.476.205-.41.356-.862.55-1.285.08-.201.197-.385.347-.54a.53.53 0 01.448-.09.46.46 0 01.243.353 5.57 5.57 0 01-.13.854c-.077.3-.13.605-.158.913a.618.618 0 00.537.657.61.61 0 00.305-.041 6.045 6.045 0 002.068-1.291c1.036-.918 1.749-2.071 2.376-3.284.251-.489.503-.977.78-1.451.158-.27.36-.567.73-.462.37.104.358.462.366.778 0 .28.02.56.057.84a.962.962 0 00.64.82.814.814 0 00.95-.291c.455-.59.864-1.213 1.279-1.833.327-.489.613-1.004.96-1.482.147-.189.332-.343.544-.454a.474.474 0 01.425.012.496.496 0 01.102.411 4.16 4.16 0 01-.253.562c-.11.222-.187.457-.231.7a.59.59 0 00.475.657c.098.018.199.01.293-.022a2.22 2.22 0 00.731-.323 61.827 61.827 0 002.55-1.937c.683-.557 1.43-1.09 1.942-1.784a14.362 14.362 0 001.53-2.763 108.632 108.632 0 015.133-10.014c1.786-3.098 3.494-6.248 5.505-9.214a26.549 26.549 0 012.63-3.356 3.698 3.698 0 012.548-1.238c.98-.051 1.988.41 1.998 1.77a4.855 4.855 0 01-.317 1.697c-.641 1.773-1.43 3.464-2.574 4.977-.722.95-1.43 1.913-2.078 2.917-1.194 1.847-2.61 3.543-3.924 5.308a48.1 48.1 0 01-4.867 5.708c-.317.312-.576.682-.874 1.014-.25.28-.513.544-.775.81-.312.32-.627.635-.946.947a9.28 9.28 0 01-.862.809 4.977 4.977 0 00-1.57 2.094c-.408.97-.874 1.923-1.264 2.904-.39.981-.715 1.983-1.075 2.974-.178.489-.37.971-.55 1.458a.764.764 0 00-.014.205c.29-.257.558-.477.803-.717.351-.328.788-.55 1.259-.64.261-.06.36-.168.335-.478a5.276 5.276 0 01.108-1.109c.264-1.91 1.62-3.033 2.947-4.208 2.086-1.847 4.573-3.068 6.876-4.575 2.547-1.664 5.312-2.898 8.046-4.216a64.7 64.7 0 0110.485-4.006 59.046 59.046 0 013.964-.955c.703-.15 1.43-.184 2.145-.279.44-.06.875-.148 1.314-.205a2.02 2.02 0 01.586.022c.094.017.174.115.26.177-.063.084-.11.22-.192.246-.354.109-.713.205-1.077.275-.705.148-1.416.267-2.119.423-2.593.579-5.198 1.135-7.693 2.071-1.768.661-3.474 1.49-5.231 2.174-2.947 1.145-5.738 2.617-8.486 4.154-1.986 1.11-3.837 2.463-5.793 3.627a27.246 27.246 0 00-3.44 2.5 5.95 5.95 0 00-1.699 2.242c-.204.482-.364.987-.531 1.486-.1.303.043.51.28.696.106.084.245.3.204.353-.127.17-.283.318-.46.437-.026.02-.143-.054-.204-.103a.408.408 0 00-.541-.037 4.514 4.514 0 00-1.502 1.41c-.31.477-.716.891-1.059 1.347-1.005 1.332-1.43 2.904-1.82 4.489-.235.932-.569 1.847-.793 2.775-.409 1.677-.736 3.372-1.138 5.051-.32 1.326-.656 2.652-1.073 3.95a9.228 9.228 0 01-.94 1.847 1.361 1.361 0 01-.969.671c-.564.082-1.195-.433-1.311-1.08-.135-.761-.015-1.514.118-2.257a32.118 32.118 0 012.95-8.78c.685-1.38 1.484-2.709 2.283-4.029a17.862 17.862 0 001.616-3.633c.613-1.814 1.349-3.584 2.03-5.375.119-.263.206-.538.259-.821a.737.737 0 00-.18-.573.61.61 0 00-.566 0c-.355.232-.693.49-1.011.77-.842.683-1.786 1.086-2.886 1.026a1.875 1.875 0 00-1.71.802c-.807 1.045-1.62 1.232-2.846.713-.748-.31-1.108-.242-1.635.386-.409.482-.764 1.012-1.169 1.498a7.744 7.744 0 01-2.764 2.124 2.57 2.57 0 01-1.443.27 1.576 1.576 0 00-1.504.558c-.437.513-.885 1.026-1.27 1.576a14.216 14.216 0 01-2.58 2.734c-1.148.957-2.284 1.934-3.498 2.798a18.685 18.685 0 01-4.017 2.136 5.518 5.518 0 01-1.201.294.656.656 0 00-.59.505c-.837 2.557-1.66 5.121-2.529 7.668-.715 2.096-1.43 4.192-2.247 6.25a49.77 49.77 0 01-2.142 4.721 42.377 42.377 0 01-3.71 5.826 24.899 24.899 0 01-6.253 5.925c-.872.575-1.635 1.314-2.603 1.743-1.226.542-2.428 1.156-3.678 1.62a18.557 18.557 0 01-4.559.991c-1.332.135-2.685.158-4.007-.236-.92-.275-1.86-.486-2.795-.704-.865-.205-1.57-.671-2.248-1.232a14.717 14.717 0 01-4.924-7.426 31.955 31.955 0 01-1.022-5.304c-.05-.4-.078-.803-.082-1.207.012-1.73-.037-3.483.08-5.22.108-1.615.351-3.226.613-4.825a39.425 39.425 0 011.912-7.44 15.168 15.168 0 012.636-4.488 6.037 6.037 0 012.771-1.824 10.542 10.542 0 014.657-.542 7.705 7.705 0 013.435 1.162c1.021.687 1.57 1.748 1.81 2.947.127.626.174 1.269.25 1.905a.484.484 0 01-.031.304c-.074.106-.204.242-.307.238-.102-.004-.227-.164-.261-.28-.205-.683-.313-1.397-.572-2.052-.83-2.11-2.4-3.266-4.655-3.49-.805-.08-1.608-.17-2.417-.022-2.044.374-3.593 1.517-4.788 3.161a16.703 16.703 0 00-2.695 5.762c-.315 1.231-.717 2.438-.94 3.684a48.374 48.374 0 00-.774 5.846 42.41 42.41 0 00.026 5.747 22.561 22.561 0 002.297 8.126 19.564 19.564 0 002.23 3.447c.935 1.202 2.21 1.822 3.604 2.257.68.218 1.37.41 2.061.585 1.445.401 2.958.488 4.439.255a24.357 24.357 0 0010.43-4.452c.726-.532 1.343-1.213 2.063-1.755 1.793-1.353 3.173-3.08 4.407-4.926a55.82 55.82 0 004.998-9.442c.672-1.601 1.265-3.24 1.87-4.869.316-.852.59-1.72.872-2.586.36-1.113.71-2.225 1.05-3.336.223-.712.43-1.437.644-2.143 0-.02.014-.039.02-.06.158-.566.146-.58-.422-.527-.444.041-.887.105-1.33.132-1.335.076-2.528-.396-3.634-1.072a16.916 16.916 0 01-4.03-3.354 11.967 11.967 0 01-2.656-5.264c-.398-1.729-.494-3.47-.578-5.218-.03-.604.108-1.217.204-1.825.178-1.256.325-2.52.575-3.762.233-1.162.594-2.297.876-3.449.979-4 2.712-7.685 4.753-11.22 1.083-1.875 2.295-3.694 3.56-5.443 1.857-2.582 4.086-4.848 6.387-7.026a29.913 29.913 0 019.3-5.93 87.89 87.89 0 014.086-1.53c1.24-.44 2.554-.497 3.844-.668.676-.09 1.346-.205 2.018-.32h1.925zm4.385 1.642a4.763 4.763 0 00-.502-.19c-.51-.13-1.022-.268-1.53-.36a20.623 20.623 0 00-1.6-.205 17.952 17.952 0 00-4.68.135c-.358.06-.73.033-1.079.115-.817.193-1.655.388-2.452.657-.995.335-1.972.733-2.944 1.127-.793.324-1.576.673-2.354 1.026-1.059.487-2.156.91-3.15 1.509a24.836 24.836 0 00-4.732 3.586c-.895.884-2 1.556-2.687 2.668a3.684 3.684 0 01-.36.429c-.85.98-1.765 1.91-2.539 2.948a55.252 55.252 0 00-4.847 7.565 59.463 59.463 0 00-3.504 7.952 49.324 49.324 0 00-1.61 5.283c-.178.786-.264 1.597-.372 2.4-.131.956-.274 1.915-.352 2.873-.126 1.556.241 3.063.556 4.568a14.164 14.164 0 001.992 4.675 12.61 12.61 0 002.69 2.74c1.225.912 2.48 1.751 3.978 2.129.4.105.812.16 1.226.162.547 0 1.095-.092 1.635-.12a.43.43 0 00.435-.323c.139-.41.265-.821.42-1.207.41-1.051.853-2.09 1.237-3.15.482-1.32.911-2.67 1.377-3.987.409-1.182.854-2.356 1.275-3.537.117-.326.205-.663.313-1.026-.685.236-1.296.513-1.937.653-1.486.322-2.978.646-4.483.835-1.073.134-2.175.045-3.27.056a1.142 1.142 0 01-.184-.027 14.075 14.075 0 01-2.979-.85c-1.097-.439-2.164-.915-2.883-1.919a.934.934 0 01-.22-.497.696.696 0 01.249-.48c.184-.137.312.053.408.205.046.07.087.141.123.216a3.892 3.892 0 001.706 1.765c1.273.688 2.673.944 4.087 1.094 1.32.14 2.627-.041 3.931-.25 1.813-.292 3.62-.616 5.313-1.363a1.09 1.09 0 00.503-.456c.322-.636.613-1.293.888-1.95.646-1.515 1.261-3.044 1.925-4.55.376-.854.887-1.643 1.226-2.513a111.068 111.068 0 014.873-10.618c1.251-2.364 2.43-4.77 3.75-7.094 1.097-1.871 2.309-3.668 3.48-5.47.525-.808 1.107-1.58 1.69-2.35.278-.37.613-.677 1.142-.634.353.029.515.141.437.476-.118.47-.27.93-.455 1.377-.127.318-.332.616-.22.998.837-1.172 1.609-2.381 2.433-3.553.823-1.172 1.716-2.33 2.621-3.543h.006zM57.044 41.356c.474-.121.912-.205 1.324-.347.546-.193 1.071-.41 1.32-1.026.25-.616.578-1.22.867-1.831.433-.92.833-1.848 1.293-2.757 1.042-2.052 2.15-4.072 3.153-6.143.948-1.958 1.812-3.958 2.685-5.953.993-2.282 2.196-4.441 3.396-6.613 1.2-2.172 2.52-4.191 3.897-6.224.204-.307.439-.615.678-.892.466-.557.934-1.113 1.43-1.643.186-.205.45-.334.724-.147a.515.515 0 01.157.698 10.196 10.196 0 01-.76 1.49c-2.117 3.079-4.044 6.283-5.96 9.489-.818 1.36-1.54 2.773-2.295 4.167-.579 1.065-1.138 2.143-1.713 3.21-.956 1.773-1.634 3.666-2.407 5.523l-2.043 5.007a2.597 2.597 0 00-.16.566c-.093.616.31.942.887.75.089-.03.175-.067.258-.11 2.031-1.003 3.823-2.366 5.576-3.774.969-.776 1.784-1.74 2.69-2.599a47.65 47.65 0 005.484-6.285c1.134-1.535 2.384-2.984 3.334-4.653.483-.848 1.114-1.622 1.504-2.504.613-1.398 1.134-2.845 1.615-4.296.58-1.761.635-3.547-.043-5.306-.544-1.406-1.226-2.714-2.626-3.469a3.961 3.961 0 01-.397-.302c-1.15-.808-2.247-1.701-3.567-2.24a.407.407 0 00-.35.023c-.61.558-1.19 1.151-1.732 1.776a60.801 60.801 0 00-2.34 3.145c-1.05 1.492-2.09 2.988-3.002 4.577-1.316 2.276-2.75 4.485-3.992 6.81a251.095 251.095 0 00-3.039 5.848 85.17 85.17 0 00-4.998 12.57 70.038 70.038 0 00-.778 2.747 4.339 4.339 0 00-.07.718zm41.789-29.888l-.078-.024c0-1.047-.63-1.51-1.635-1.212a3.829 3.829 0 00-2.043 1.407 88.883 88.883 0 00-2.452 3.417c-.613.93-1.159 1.915-1.735 2.874-.921 1.537-1.865 3.064-2.763 4.618-.692 1.205-1.299 2.463-2 3.66a42.35 42.35 0 00-2.346 4.665 1.903 1.903 0 00-.163.565c-.033.328.22.5.499.326.244-.157.465-.347.657-.564 1.476-1.642 2.99-3.268 4.398-4.974 1.342-1.623 2.587-3.329 3.847-5.018.987-1.322 1.95-2.662 2.892-4.02a27.544 27.544 0 001.467-2.343c.384-.686.709-1.408 1.021-2.129.166-.408.31-.825.434-1.248zm-28.56-1.155c-.096-.138-.16-.32-.284-.38a.51.51 0 00-.425.057c-.164.11-.303.254-.409.421-.787 1.207-1.585 2.408-2.333 3.64-.881 1.453-1.715 2.934-2.565 4.396-.245.41-.519.821-.735 1.262a260.67 260.67 0 00-2.228 4.553 498.5 498.5 0 00-3.774 8.048c-1.021 2.233-1.965 4.497-2.924 6.757-.408.963-.758 1.95-1.132 2.927a2.435 2.435 0 00-.075.34c.12.047.246.072.374.075.674-.109 1.344-.24 2.018-.355a.439.439 0 00.41-.364c.08-.392.138-.788.238-1.176.337-1.31.595-2.652 1.056-3.918a270.24 270.24 0 013.787-9.881c.678-1.665 1.59-3.233 2.374-4.855a76.027 76.027 0 014.373-7.867c.63-.987 1.304-1.948 1.941-2.931.126-.24.23-.491.313-.75zm3.776 42.693l-.096-.03a1.56 1.56 0 00-.215.244c-.408.7-.817 1.394-1.201 2.106-.736 1.369-1.077 2.884-1.539 4.35a22.05 22.05 0 00-.568 2.667 4.29 4.29 0 00-.049 1.17.617.617 0 00.358.442c.15.047.38-.074.54-.179.118-.1.209-.23.263-.375.208-.417.393-.844.553-1.281.683-2.042 1.088-4.155 1.5-6.263.143-.73.274-1.465.399-2.2.037-.21.039-.429.055-.644v-.007zm-15.325-10.95l-.094-.072c-.527.162-1.057.318-1.582.493a.33.33 0 00-.186.227c-.06.847-.107 1.697-.14 2.55 0 .088.095.182.146.275.078-.062.182-.107.23-.185.347-.577.71-1.145 1.01-1.747.246-.486.412-1.02.614-1.535l.002-.006z" fill="#fff" stroke="#fff"/></svg>