<svg width="217" height="28" viewBox="0 0 217 28" fill="none" xmlns="http://www.w3.org/2000/svg">
<circle cx="14" cy="14" r="14" fill="#EA35A1"/>
<path d="M20.7104 9.21C20.6175 9.11627 20.5069 9.04188 20.385 8.99111C20.2632 8.94034 20.1324 8.9142 20.0004 8.9142C19.8684 8.9142 19.7377 8.94034 19.6159 8.99111C19.494 9.04188 19.3834 9.11627 19.2904 9.21L11.8404 16.67L8.71044 13.53C8.61392 13.4368 8.49998 13.3634 8.37512 13.3142C8.25026 13.265 8.11694 13.2409 7.98276 13.2432C7.84858 13.2456 7.71617 13.2743 7.59309 13.3278C7.47001 13.3813 7.35868 13.4585 7.26544 13.555C7.1722 13.6515 7.09889 13.7655 7.04968 13.8903C7.00048 14.0152 6.97635 14.1485 6.97867 14.2827C6.98099 14.4169 7.00972 14.5493 7.06321 14.6723C7.1167 14.7954 7.19392 14.9068 7.29044 15L11.1304 18.84C11.2234 18.9337 11.334 19.0081 11.4559 19.0589C11.5777 19.1097 11.7084 19.1358 11.8404 19.1358C11.9725 19.1358 12.1032 19.1097 12.225 19.0589C12.3469 19.0081 12.4575 18.9337 12.5504 18.84L20.7104 10.68C20.8119 10.5864 20.893 10.4727 20.9484 10.3462C21.0038 10.2197 21.0324 10.0831 21.0324 9.945C21.0324 9.8069 21.0038 9.67029 20.9484 9.54379C20.893 9.41729 20.8119 9.30364 20.7104 9.21Z" fill="white"/>
<line x1="50" y1="14" x2="216" y2="14" stroke="#FFCDEB" stroke-width="2" stroke-linecap="round"/>
</svg>
