<svg width="35" height="35" viewBox="0 0 35 35" fill="none" xmlns="http://www.w3.org/2000/svg">
<path d="M13.3725 16.4646L19.5559 10.2813C19.6914 10.1446 19.8527 10.0361 20.0305 9.96204C20.2082 9.888 20.3988 9.84988 20.5913 9.84988C20.7838 9.84988 20.9744 9.888 21.1521 9.96204C21.3298 10.0361 21.4911 10.1446 21.6267 10.2813C21.8983 10.5545 22.0508 10.9241 22.0508 11.3094C22.0508 11.6947 21.8983 12.0643 21.6267 12.3375L16.4642 17.5L21.6267 22.6625C21.8983 22.9357 22.0508 23.3054 22.0508 23.6906C22.0508 24.0759 21.8983 24.4455 21.6267 24.7188C21.4904 24.8539 21.3288 24.9608 21.1512 25.0334C20.9735 25.106 20.7832 25.1428 20.5913 25.1417C20.3994 25.1428 20.2091 25.106 20.0314 25.0334C19.8537 24.9608 19.6921 24.8539 19.5559 24.7188L13.3725 18.5354C13.2359 18.3998 13.1274 18.2386 13.0533 18.0608C12.9793 17.8831 12.9412 17.6925 12.9412 17.5C12.9412 17.3075 12.9793 17.1169 13.0533 16.9392C13.1274 16.7615 13.2359 16.6002 13.3725 16.4646Z" fill="#9CA9B5"/>
</svg>
