<svg width="148" height="93" viewBox="0 0 148 93" fill="none" xmlns="http://www.w3.org/2000/svg">
<path d="M5.96687 45.2059C5.63582 45.1101 5.41091 45.0037 5.29215 44.8869C5.19462 44.7679 5.07492 44.5332 4.93305 44.1828C4.98918 43.234 5.05351 42.5845 5.12603 42.2343C5.20927 41.7759 5.28737 41.1572 5.36031 40.3782C5.43957 39.6629 5.49948 39.1854 5.54005 38.9455L6.1243 37.3763C6.20355 36.6611 6.42427 35.6424 6.78645 34.3203C7.04647 33.2655 7.2819 32.3954 7.49273 31.71L7.89853 30.2871C8.14153 29.2769 8.38221 28.4599 8.62058 27.836C8.23424 27.8314 7.95195 27.795 7.77371 27.7269C7.61459 27.6355 7.4704 27.4783 7.34114 27.2552C7.19926 26.9048 7.07452 26.4027 6.96691 25.7488C7.2389 25.4646 7.5193 25.2653 7.80811 25.151C8.09482 25.0154 8.32309 24.9392 8.49292 24.9224L10.28 24.1345C13.1637 23.1631 14.7965 22.6584 15.1787 22.6206C15.4738 22.5699 15.6967 22.5479 15.8474 22.5544C15.996 22.5397 16.0809 22.5313 16.1022 22.5292L18.0481 22.0471C18.2117 21.9666 18.442 21.9116 18.7393 21.8822C19.0344 21.8316 19.2329 21.7798 19.3348 21.7268C19.4559 21.6505 19.5801 21.606 19.7075 21.5934C19.8137 21.5829 19.9315 21.582 20.061 21.5906C20.2117 21.5971 20.373 21.6026 20.5449 21.607C20.8356 21.7283 21.0541 21.8781 21.2004 22.0566C21.3446 22.2138 21.4866 22.457 21.6264 22.7862L21.5838 23.9802C21.5243 24.029 21.3257 24.188 20.9879 24.4572C20.6713 24.7244 20.3208 24.9734 19.9364 25.2044C19.5498 25.4142 19.1973 25.5349 18.8789 25.5664C18.6878 25.5853 18.5148 25.5703 18.3599 25.5213C18.0905 25.3979 17.9122 25.3298 17.8252 25.317C17.7594 25.302 17.6915 25.2659 17.6215 25.2085C17.5515 25.1511 17.3999 25.0268 17.1666 24.8355C16.9881 24.9818 16.7396 25.0707 16.4212 25.1022C16.0815 25.1359 15.8204 25.2046 15.6377 25.3084C15.194 25.3738 14.5156 25.5589 13.6025 25.8636C12.6873 26.1472 12.1384 26.3409 11.9557 26.4447L11.4702 28.0363C11.0147 29.2819 10.6654 30.4098 10.4224 31.4199L9.18547 36.1408C9.08541 36.4294 8.90748 37.1223 8.65166 38.2195C8.41496 39.2933 8.29861 39.9587 8.3026 40.2156C8.28957 40.517 8.1934 41.1696 8.01409 42.1735C7.83268 43.1562 7.75132 43.8502 7.77003 44.2557C7.78474 44.4043 7.7655 44.5348 7.71232 44.6473C7.66124 44.781 7.62614 44.8595 7.60701 44.8828C7.34574 45.0587 7.0665 45.1614 6.76928 45.1908C6.66314 45.2013 6.39566 45.2064 5.96687 45.2059ZM20.2703 42.568C20.0603 42.3959 19.8769 42.1675 19.7201 41.8829C19.5825 41.5749 19.3972 41.1109 19.1643 40.4909C19.1092 40.3677 19.0701 40.1893 19.047 39.9558C19.0218 39.7011 19.0039 39.5206 18.9934 39.4145C18.9274 39.6139 18.8423 39.8367 18.738 40.0829C18.6317 40.3078 18.519 40.469 18.4 40.5665C17.9601 41.1031 17.5076 41.5124 17.0424 41.7942C16.4051 42.2861 15.8423 42.5562 15.354 42.6045C14.7596 42.6634 14.2227 42.4378 13.7435 41.9279C13.0095 41.4432 12.6047 40.8187 12.529 40.0544C12.5185 39.9483 12.5198 39.7445 12.5328 39.4431C12.4975 38.6534 12.5291 37.8892 12.6274 37.1506C12.7471 36.4099 13.0059 35.4517 13.404 34.2761L14.1702 32.2709L14.582 31.2333C14.6839 31.1803 14.8517 31.1422 15.0852 31.1191C15.4249 31.0855 15.7496 31.1177 16.0595 31.2156C16.3693 31.3136 16.5453 31.4676 16.5876 31.6778C16.6597 31.7565 16.7073 31.9125 16.7304 32.146C16.7976 32.8254 16.6004 33.756 16.1385 34.9379L15.9437 35.5682C15.6519 36.5189 15.4463 37.2574 15.327 37.7837C15.2076 38.3101 15.1647 38.7431 15.1983 39.0827C15.2319 39.4224 15.3814 39.6327 15.6466 39.7136C15.7591 39.7668 15.8896 39.786 16.0382 39.7713C16.4628 39.7293 16.9397 39.3498 17.469 38.6328C18.0195 37.9138 18.5365 36.7478 19.02 35.135C19.2457 34.3838 19.3526 33.6229 19.3407 32.8523C19.2751 32.623 19.3135 32.3619 19.4561 32.0692C19.5986 31.7764 19.7994 31.5314 20.0586 31.3342C20.1309 31.1984 20.2382 31.0913 20.3805 31.0129C20.5207 30.9133 20.6162 30.9039 20.6671 30.9846L21.1735 30.9023C21.2351 30.8748 21.34 30.9608 21.4884 31.1605C21.6581 31.3581 21.7768 31.475 21.8447 31.5111C22.0738 31.6599 22.2136 31.9891 22.264 32.4986C22.3334 33.1992 22.1743 34.1904 21.7866 35.4721C21.4673 36.3612 21.2565 37.0467 21.1541 37.5284C21.0709 37.9869 21.0397 38.4294 21.0605 38.8561C21.1046 39.3019 21.1711 39.6491 21.2601 39.8975C21.3681 40.1226 21.5833 40.3479 21.9058 40.5732C22.2685 40.7731 22.4612 41.3114 22.4837 42.1881C22.4559 42.3409 22.3507 42.4692 22.1681 42.5731C21.9854 42.6769 21.7561 42.7425 21.4801 42.7698C21.013 42.816 20.6098 42.7488 20.2703 42.568ZM34.0252 30.0159C34.2923 30.3324 34.4671 30.6903 34.5495 31.0895C34.6531 31.4865 34.71 31.8453 34.7203 32.1659C34.7498 32.4631 34.7793 32.6531 34.8089 32.7359C34.6807 33.6061 34.4843 34.7617 34.2196 36.2028C33.9529 37.6227 33.8366 38.1808 33.8709 37.8773C33.8473 38.0726 33.7887 38.3464 33.6949 38.6987C33.5755 39.225 33.4998 39.6505 33.4676 39.9753C33.4417 40.3637 33.3311 40.6533 33.1356 40.8442C32.9592 41.0117 32.6884 41.1993 32.3231 41.407L32.0746 41.4959C31.926 41.5106 31.7615 41.4733 31.5812 41.384C31.42 41.2713 31.2588 41.1586 31.0975 41.046C30.8836 40.6169 30.7671 40.3069 30.7482 40.1158C30.7293 39.9248 30.7667 39.6531 30.8605 39.3008C31.0183 38.5134 31.2018 37.552 31.411 36.4166C31.6181 35.2599 31.7995 34.2772 31.9552 33.4686L32.1249 32.5836C32.1699 32.1718 32.1681 31.829 32.1195 31.5551C32.0113 31.5444 31.7873 31.5558 31.4476 31.5895C31.023 31.6315 30.6865 31.697 30.4381 31.7859C30.3397 32.5245 30.1585 33.2928 29.8945 34.0906C29.6496 34.8652 29.2452 35.9771 28.6812 37.4264C28.3726 38.2073 28.0068 38.9509 27.5837 39.6574L27.252 40.2047L26.2159 41.4328L25.3044 42.2947C25.1875 42.4135 25.0558 42.4909 24.9093 42.5268C24.7649 42.584 24.6068 42.6103 24.4348 42.6059C24.265 42.6227 24.127 42.6364 24.0208 42.6469C23.7364 42.5893 23.4532 42.4351 23.1711 42.1844C22.9103 41.9315 22.7343 41.7774 22.643 41.7221L22.446 41.3558C22.4271 41.1647 22.4346 41.0246 22.4687 40.9355C22.5219 40.823 22.6441 40.6502 22.8354 40.4168C22.9588 40.1474 23.1372 40.0011 23.3707 39.978C23.4981 39.9654 23.5947 39.9665 23.6605 39.9814C23.8177 39.8373 24.0546 39.6316 24.3712 39.3644C24.6856 39.076 24.9395 38.8258 25.1329 38.6137C25.3454 38.3783 25.5155 38.1471 25.6431 37.9201C26.0429 37.1945 26.5246 36.2143 27.0884 34.9794C27.3181 34.485 27.598 33.7392 27.928 32.7418C27.7307 32.697 27.5991 32.6672 27.5333 32.6523C27.4887 32.6352 27.354 32.5735 27.1291 32.4672L26.5764 31.107C26.5239 30.5763 26.7461 30.222 27.243 30.0442C27.6167 29.9214 28.1698 29.7702 28.9023 29.5905C29.4268 29.4743 29.8652 29.3558 30.2177 29.2352C30.4853 29.1229 30.8208 29.0469 31.2241 29.0069C31.8186 28.9481 32.3704 29.0006 32.8797 29.1646C33.3232 29.3136 33.705 29.5974 34.0252 30.0159ZM38.334 40.7798C38.1345 40.7138 37.8735 40.6753 37.5508 40.6644C37.2707 40.6492 37.0425 40.6182 36.8663 40.5713C36.6902 40.5245 36.4971 40.4149 36.2872 40.2428C35.986 40.0154 35.7336 39.7402 35.5302 39.4174C35.3458 39.0712 35.2347 38.707 35.1969 38.3249C35.1717 38.0701 35.174 37.8769 35.2039 37.7454C35.2486 37.548 35.2637 37.375 35.249 37.2264C35.2092 36.6086 35.3075 35.9772 35.5438 35.3321C35.5097 35.4213 35.613 35.0573 35.8537 34.2403C36.0988 33.2513 36.5618 31.9728 37.2426 30.4048L37.9448 28.7275C38.1342 28.2585 38.473 27.9999 38.9613 27.9516C39.3647 27.9116 39.8327 27.9832 40.3653 28.1663C40.4288 28.3744 40.5178 28.5156 40.6323 28.59C40.8358 28.9129 40.947 29.1699 40.9659 29.3609C40.9806 29.5095 40.9816 29.6274 40.9687 29.7144C40.5626 30.3763 40.2553 30.9533 40.0468 31.4456C40.3655 31.1997 40.7371 31.0557 41.1617 31.0137L41.7727 31.3391C42.2946 31.6304 42.6372 31.843 42.8005 31.9769C42.8194 32.168 42.9179 32.4048 43.096 32.6873C43.3904 33.2798 43.5587 33.7884 43.6007 34.213C43.731 35.5292 43.4698 36.6805 42.8172 37.667C42.1624 38.6322 41.2138 39.4442 39.9713 40.1032C39.8078 40.1837 39.6379 40.3077 39.4615 40.4752C39.3978 40.4815 39.2088 40.5217 38.8946 40.5956C38.6016 40.6675 38.4147 40.7289 38.334 40.7798ZM38.1203 37.9712C38.2201 37.897 38.4038 37.8037 38.6714 37.6915C38.9602 37.5772 39.1631 37.4606 39.2799 37.3418C39.7707 36.8859 40.1321 36.4214 40.3639 35.9483C40.617 35.473 40.7651 34.9117 40.8082 34.2643L40.7287 34.1114C40.3744 33.9964 40.0688 33.8337 39.8122 33.6233C39.5747 33.3896 39.4497 33.1018 39.4373 32.7601L39.0063 33.9282C38.7742 34.6157 38.5792 35.4604 38.4211 36.4622C38.357 36.8973 38.2567 37.4003 38.1203 37.9712ZM59.3488 27.4446C59.72 27.7294 59.9413 28.2327 60.0128 28.9546C60.0863 29.6976 60.0324 30.5604 59.851 31.5431C59.6675 32.5045 59.4223 33.6007 59.1154 34.8315L58.9268 35.5255L58.8915 35.8184C58.8638 35.9712 58.8646 36.1962 58.894 36.4934C58.9213 36.7694 58.9551 37.0019 58.9952 37.1909C59.0354 37.3798 59.0723 37.5369 59.1062 37.6622C58.8321 37.9252 58.5049 38.1934 58.1247 38.4668L57.6949 38.3486L57.367 38.2846C57.1867 38.1952 57.0859 38.1516 57.0647 38.1537C56.6723 37.871 56.4582 37.5492 56.4224 37.1883L56.3975 36.612C56.3765 36.3997 56.3152 36.2128 56.2134 36.0514C56.3566 35.1154 56.6083 33.8685 56.9686 32.3108L57.3205 30.6681L57.1518 30.5883C57.037 30.7283 56.9159 30.9118 56.7883 31.1388C56.6586 31.3446 56.5247 31.5079 56.3866 31.6288C56.1316 31.8684 55.8127 32.3287 55.43 33.0098C55.0684 33.6887 54.8696 34.0621 54.8334 34.13C54.4315 34.8343 53.8534 35.599 53.099 36.424L52.3467 37.2702C52.0385 37.6223 51.6828 37.8183 51.2794 37.8582C50.5789 37.9276 49.9413 37.5512 49.3669 36.7292C49.2719 36.2026 49.2809 35.6443 49.394 35.0543C49.5071 34.4643 49.6925 33.7385 49.9502 32.8769L50.2763 31.6227L50.1076 31.543C48.8813 33.0149 47.8723 34.7333 47.0807 36.6982C46.9765 36.9444 46.904 37.1873 46.8635 37.4272C46.7165 37.8919 46.5718 38.2707 46.4293 38.5635C46.2847 38.835 46.0626 39.0821 45.7631 39.3047L45.5433 39.3586C45.2312 39.4538 44.9097 39.3463 44.5789 39.0361C44.2459 38.7046 43.9852 38.3445 43.7966 37.9559C43.8927 37.4104 44.0651 36.986 44.3137 36.6827C44.3734 36.4196 44.4309 36.2424 44.4862 36.1512C44.5947 35.9475 44.6744 35.7788 44.7255 35.6451C45.0215 34.7369 45.4905 33.7365 46.1327 32.6439C46.794 31.528 47.5411 30.5215 48.3741 29.6244C49.2263 28.704 50.0527 28.0648 50.8533 27.7068C51.1568 27.7411 51.4645 27.8178 51.7765 27.937C52.0863 28.035 52.2964 28.0999 52.4067 28.1319L52.7056 28.5525C52.854 28.7521 52.9461 29.0324 52.9818 29.3933C53.0364 29.9453 52.954 30.6288 52.7346 31.4437C52.513 32.2374 52.1884 33.1806 51.7606 34.2734L51.9293 34.3532C52.6011 33.3434 53.0943 32.5871 53.409 32.0843C54.2615 30.7351 54.9811 29.667 55.5678 28.8801C56.1736 28.0698 56.7993 27.4612 57.4451 27.0543C57.5661 26.978 57.701 26.9325 57.8496 26.9177C58.2529 26.8778 58.7527 27.0534 59.3488 27.4446ZM65.0462 37.7495C64.8381 37.8129 64.6491 37.8531 64.4793 37.8699C64.2033 37.8972 63.9464 37.9012 63.7087 37.8819C63.4689 37.8413 63.3448 37.7786 63.3364 37.6936C63.3301 37.6299 63.3152 37.5885 63.2919 37.5694C63.2686 37.5503 63.2251 37.5439 63.1614 37.5502C63.0914 37.4928 62.9323 37.4014 62.684 37.2759C62.4549 37.127 62.2629 37.0282 62.108 36.9792C61.8175 36.6435 61.6513 36.2634 61.6092 35.8388C61.5693 35.4354 61.6326 34.7753 61.7991 33.8584C61.7383 33.0284 61.9441 32.0755 62.4164 30.9997C62.9079 29.9006 63.5245 28.8749 64.2663 27.9225C65.006 26.9489 65.6859 26.2384 66.3062 25.7912C66.5932 25.4412 67.0232 25.2378 67.5964 25.1811C68.0422 25.137 68.4444 25.1936 68.803 25.351C69.0958 25.4936 69.4712 25.8208 69.9292 26.3329C70.4085 26.8428 70.7763 27.3102 71.0327 27.735C71.0899 27.8794 71.1629 28.0758 71.2518 28.3243C71.362 28.5706 71.4349 28.8742 71.4706 29.2351L71.4952 30.1331C71.3266 31.0287 71.277 31.8268 71.3464 32.5274C71.3333 32.8288 71.3787 33.0709 71.4826 33.2535C71.5843 33.4149 71.7095 33.4883 71.8581 33.4736C71.9642 33.4631 72.0778 33.4197 72.1989 33.3434C72.32 33.2671 72.4654 33.2205 72.6353 33.2037C72.9113 33.1764 73.1532 33.2382 73.3611 33.3891C73.5689 33.54 73.6855 33.7429 73.7107 33.9976C73.7317 34.2099 73.6986 34.4169 73.6114 34.6184C73.4624 35.0619 73.1393 35.4798 72.6422 35.872C72.1663 36.2621 71.7054 36.4792 71.2596 36.5234C70.8987 36.5591 70.5295 36.4027 70.152 36.0542C69.7957 35.7036 69.4916 35.2299 69.2396 34.6332L68.976 33.9197L67.9336 35.084L67.2737 35.889C66.9677 36.2623 66.7966 36.4829 66.7604 36.5508C66.6711 36.7311 66.4958 36.9092 66.2345 37.0852C65.9945 37.259 65.5984 37.4804 65.0462 37.7495ZM65.6033 34.6073C65.9645 34.3572 66.2566 34.0603 66.4799 33.7166C66.7243 33.3708 67.0199 32.8914 67.3665 32.2783C67.4388 32.1425 67.5111 32.0067 67.5834 31.8709C67.6536 31.7139 67.745 31.5548 67.8577 31.3936C68.1703 30.8696 68.3861 30.4516 68.5053 30.1397C68.6457 29.8256 68.7416 29.4946 68.7929 29.1465C68.6806 28.8789 68.528 28.6368 68.3351 28.4201C68.1613 28.18 68.0096 28.0557 67.8801 28.0471C67.2857 28.1059 66.5483 28.8864 65.668 30.3884C65.5766 30.5475 65.433 30.8297 65.2373 31.2349C65.0629 31.6381 64.9501 31.9065 64.899 32.0402C64.8076 32.1993 64.6947 32.5749 64.5604 33.167C64.4452 33.7358 64.396 34.1051 64.4128 34.275C64.459 34.742 64.6202 34.9619 64.8961 34.9346C65.1084 34.9135 65.3442 34.8045 65.6033 34.6073ZM85.8575 25.978C85.8041 26.3048 85.6976 26.6369 85.5381 26.9743C85.3785 27.3116 85.2732 27.5472 85.2222 27.6808C85.1051 28.014 85.0135 28.2803 84.9475 28.4798C84.8794 28.658 84.8304 28.8129 84.8006 28.9445C85.2441 29.0936 85.4814 29.5417 85.5125 30.2889L85.2095 30.8013L84.2252 31.2524C84.176 31.6217 84.1428 31.9359 84.1255 32.1948C84.1209 32.5812 84.0461 33.1245 83.901 33.8249L83.7825 34.5762C83.7099 34.9264 83.594 35.163 83.4347 35.2859C83.2966 35.4068 83.0715 35.5148 82.7593 35.61C82.6277 35.5802 82.441 35.5344 82.1991 35.4726C81.9571 35.4108 81.7799 35.3533 81.6675 35.3001C81.555 35.2469 81.4405 35.1725 81.3238 35.0769C81.1775 34.8984 81.0939 34.703 81.0729 34.4907C81.0539 34.2997 81.0936 33.942 81.1917 33.4178C81.3645 32.5646 81.483 31.9205 81.5471 31.4854L81.0152 31.6345C80.6988 31.6873 80.4579 31.7433 80.2922 31.8026C80.1245 31.8406 79.9992 31.8745 79.9164 31.9041C79.755 32.0058 79.4195 32.0819 78.91 32.1323C78.4854 32.1744 78.1107 32.1793 77.786 32.1471C77.754 32.2575 77.7157 32.4114 77.6709 32.6087C77.624 32.7849 77.5718 33.0151 77.5142 33.2995C77.4288 33.7367 77.3946 34.0403 77.4114 34.2101L77.3691 35.0825C77.3435 35.2565 77.3294 35.5473 77.3269 35.9549C77.3498 36.4028 77.2773 36.753 77.1093 37.0054C76.9435 37.2791 76.7119 37.4307 76.4147 37.4601C75.9264 37.5084 75.3323 37.2457 74.6324 36.6718L74.4609 36.2386L74.7277 33.7362C74.7575 33.6046 74.7863 33.4624 74.814 33.3096C74.8418 33.1568 74.8579 32.9944 74.8623 32.8225L75.0351 31.9693L75.2876 30.9474C75.4966 30.0264 75.6777 29.3653 75.8309 28.9643C75.8864 28.6587 75.96 28.3191 76.0516 27.9456C76.1645 27.57 76.2454 27.3047 76.2944 27.1498C76.3306 27.0819 76.4222 26.7084 76.5694 26.0292C76.7144 25.3289 76.8178 24.8577 76.8796 24.6158C77.0074 24.1744 77.2942 23.9316 77.7401 23.8875C78.1838 23.8221 78.5891 23.9106 78.9561 24.153C79.321 24.3741 79.534 24.6853 79.5952 25.0866C79.6036 25.1715 79.6077 25.3211 79.6075 25.5355C79.6052 25.7287 79.586 25.8592 79.5498 25.9271L78.4188 29.7692C78.6078 29.7291 78.8381 29.6741 79.1099 29.6044C79.3796 29.5133 79.5781 29.4615 79.7055 29.4489C79.9964 29.3558 80.3648 29.2872 80.8106 29.2431C81.2564 29.1989 81.6099 29.1961 81.8709 29.2346C81.9603 29.0542 82.0572 28.7338 82.1616 28.2732C82.1852 28.078 82.2534 27.7925 82.3663 27.4169C82.4815 26.8481 82.6624 26.2943 82.9092 25.7553C82.9241 25.6896 82.937 25.6025 82.9477 25.4943C82.9563 25.3648 83.0744 25.0423 83.3021 24.5267C83.6249 24.3232 83.9244 24.2078 84.2003 24.1805C84.6249 24.1385 84.9995 24.2407 85.324 24.4873C85.6698 24.7317 85.8627 25.0556 85.9026 25.459C85.9173 25.6076 85.9023 25.7806 85.8575 25.978ZM91.5117 35.8691C91.259 35.9155 91.0446 35.9153 90.8685 35.8684C90.7157 35.8407 90.4812 35.746 90.1651 35.5843C89.6623 35.2697 89.2254 34.8627 88.8544 34.3635C88.5047 33.8622 88.3225 33.43 88.308 33.067C88.323 33.0013 88.3241 32.9047 88.3115 32.7773C88.2989 32.6499 88.2788 32.5554 88.2513 32.4938C88.2217 32.411 88.2058 32.359 88.2037 32.3378C88.1125 32.2825 88.0552 32.2453 88.0319 32.2262C88.0277 32.1837 88.0341 32.1402 88.0511 32.0956C88.0893 32.049 88.117 32.0034 88.134 31.9588C88.2168 31.9292 88.2551 31.8825 88.2488 31.8188C88.2425 31.7551 88.2139 31.6829 88.163 31.6022C88.0825 31.4387 88.0765 31.0534 88.1451 30.4463C88.2327 29.816 88.3671 29.2239 88.548 28.67C88.6779 28.2498 88.8918 27.7034 89.1897 27.0308C89.5088 26.3561 89.8107 25.8332 90.0955 25.462C90.5653 24.7938 90.9553 24.2942 91.2656 23.9634C91.5971 23.6305 91.9773 23.357 92.4063 23.143C92.7525 22.9587 93.1167 22.8476 93.4988 22.8098C94.0083 22.7593 94.4688 22.8638 94.8804 23.1232C96.1241 23.3431 96.9217 23.9287 97.2731 24.88C97.4446 25.3132 97.5577 25.8058 97.6123 26.3578C97.73 27.5466 97.4878 28.889 96.8855 30.385C96.562 31.2316 96.2249 31.9403 95.8741 32.511C95.5424 33.0583 95.1237 33.5928 94.6179 34.1145C94.2673 34.4708 93.7872 34.8184 93.1777 35.1575C92.5872 35.4732 92.0319 35.7104 91.5117 35.8691ZM93.8061 30.7863C94.0422 30.3556 94.2272 29.9514 94.3613 29.5737C94.4954 29.196 94.5957 28.693 94.6621 28.0647C94.7092 27.6742 94.7139 27.2879 94.676 26.9057C94.6088 26.2264 94.4765 25.8643 94.2791 25.8195C94.1242 25.7706 93.9724 25.7534 93.8238 25.7681C93.378 25.8123 92.9393 26.1451 92.5078 26.7667C92.072 27.3457 91.7626 27.9016 91.5796 28.4342C91.3965 28.9668 91.212 29.8104 91.0262 30.965C90.9749 31.3131 90.9661 31.657 90.9997 31.9967C91.0333 32.3363 91.1137 32.6071 91.2409 32.8089C91.3659 32.9894 91.5346 33.0692 91.7469 33.0482C92.3413 32.9893 93.0277 32.2354 93.8061 30.7863ZM102.68 34.5383C102.519 34.4257 102.395 34.3629 102.308 34.3501C102.24 34.3139 102.142 34.3022 102.015 34.3148C101.885 34.3062 101.756 34.2975 101.626 34.2889C101.538 34.0405 101.352 33.6837 101.07 33.2185C100.873 32.9593 100.722 32.7278 100.616 32.5239C100.531 32.3179 100.475 32.0769 100.448 31.801C100.435 31.6736 100.359 31.5525 100.219 31.4377C100.098 31.2996 100.026 31.221 100.002 31.2019L100.27 30.9825C100.194 30.8614 100.149 30.7372 100.137 30.6098C100.128 30.5249 100.15 30.4156 100.201 30.2819C100.137 30.0738 100.098 29.8954 100.083 29.7468C100.048 29.3859 100.06 28.9667 100.12 28.4891C100.178 27.9904 100.212 27.6868 100.223 27.5786C100.248 27.4045 100.269 27.1774 100.284 26.8972C100.318 26.5937 100.337 26.356 100.342 26.1841C100.229 26.1309 100.103 26.0469 99.9631 25.9321C99.821 25.7961 99.715 25.6994 99.645 25.6421C99.6582 25.1262 99.718 24.7559 99.8244 24.531C99.9286 24.2848 100.172 24.0357 100.554 23.7834L100.841 23.7551C101.075 23.3032 101.306 22.4978 101.534 21.339C101.681 20.6599 101.894 19.9957 102.173 19.3464C102.473 18.695 102.668 18.2791 102.757 18.0988C102.985 17.3688 103.4 16.5774 104.001 15.7247C104.601 14.8507 105.199 14.1805 105.796 13.7141C106.176 13.4406 106.501 13.2584 106.771 13.1674C107.062 13.0743 107.482 12.9898 108.032 12.9139C108.503 13.1245 108.917 13.4051 109.273 13.7558C109.629 14.1064 109.829 14.5046 109.873 14.9504L109.921 15.4281C109.95 15.7253 109.922 15.9853 109.837 16.2081C109.856 16.3992 109.843 16.5934 109.798 16.7907C109.754 16.9881 109.723 17.1091 109.706 17.1536C109.691 17.2194 109.659 17.3298 109.61 17.4847C109.582 17.6375 109.573 17.767 109.584 17.8731C109.03 19.4286 108.492 20.5966 107.969 21.3772C107.468 22.1558 106.602 23.1526 105.371 24.3677C105.827 24.6441 106.125 24.9469 106.265 25.2761C106.405 25.6053 106.517 26.0872 106.601 26.722C106.631 27.0192 106.664 27.2517 106.702 27.4194C106.799 27.9672 106.861 28.3685 106.886 28.6232C107.004 29.8121 106.867 30.919 106.475 31.9439C106.141 32.6844 105.724 33.2401 105.225 33.6111C104.726 33.9821 104.05 34.2956 103.196 34.5516L102.68 34.5383ZM106.963 15.4315C105.526 17.3745 104.428 19.8199 103.669 22.7676C104.479 22.2802 105.193 21.7056 105.814 21.044C106.456 20.3802 106.923 19.6907 107.217 18.9757C107.462 18.4155 107.546 17.7533 107.471 16.989C107.405 16.3309 107.236 15.8117 106.963 15.4315ZM103.39 31.9599C103.914 31.6293 104.26 31.2199 104.426 30.7319C104.611 30.2205 104.672 29.6463 104.609 29.0094C104.554 28.4575 104.413 27.7855 104.184 26.9935C104.095 26.745 104.037 26.4828 104.01 26.2068C103.98 26.124 103.873 26.0167 103.689 25.8849C103.504 25.7531 103.388 25.6681 103.342 25.6298C103.106 25.8461 102.946 26.3979 102.862 27.2851C102.798 28.149 102.809 29.0161 102.895 29.8865C102.981 30.757 103.112 31.3228 103.288 31.5841L103.39 31.9599ZM109.84 33.09C109.763 32.9689 109.566 32.8169 109.248 32.6341C108.93 32.4512 108.768 32.3385 108.764 32.2961C108.756 32.2111 108.691 32.0996 108.57 31.9615C108.468 31.8001 108.369 31.6599 108.271 31.5409C108.085 31.3879 108.147 30.8244 108.458 29.8504C108.769 28.8763 109.201 27.7188 109.754 26.3778C109.869 26.2378 110.006 25.9991 110.165 25.6617C110.346 25.3223 110.466 25.1282 110.526 25.0794C110.517 24.9945 110.542 24.917 110.599 24.847C110.654 24.7558 110.725 24.706 110.809 24.6976L111.014 24.1629C111.08 23.9634 111.449 23.466 112.12 22.6706C112.792 21.8753 113.327 21.3292 113.727 21.0324C114.103 20.7165 114.524 20.5354 114.991 20.4892C115.501 20.4387 115.951 20.5442 116.341 20.8057L117.273 21.453C117.963 21.9207 118.354 22.1928 118.447 22.2693L119.73 23.2036L119.346 24.8494C119.212 25.4415 119.17 25.9923 119.22 26.5018C119.3 27.3085 119.598 28.0401 120.113 28.6965C120.242 28.9196 120.398 29.0863 120.58 29.1969C120.784 29.3054 121.036 29.3661 121.338 29.3792C121.813 29.4178 122.07 29.6282 122.108 30.0104C122.154 30.4774 122.104 30.8361 121.957 31.0865C121.81 31.3368 121.623 31.5054 121.396 31.5922C121.061 31.6683 120.829 31.7126 120.702 31.7252C120.086 31.7862 119.508 31.6826 118.967 31.4146C118.426 31.1466 117.926 30.6494 117.469 29.923C117.371 29.804 117.231 29.582 117.049 29.2571C116.888 28.93 116.791 28.7039 116.757 28.5786C116.629 28.8056 116.412 29.1057 116.106 29.479C114.138 31.9034 112.475 33.1828 111.116 33.3173C110.649 33.3636 110.224 33.2878 109.84 33.09ZM111.329 30.2735C111.673 30.2823 112.293 29.8351 113.19 28.9317C113.288 28.8362 113.395 28.7291 113.512 28.6104C113.627 28.4704 113.752 28.3294 113.888 28.1873C114.434 27.6401 114.851 27.1916 115.138 26.8416C115.444 26.4683 115.744 26.0313 116.037 25.5307L116.624 24.3149C116.366 23.8689 116.144 23.58 115.959 23.4482C115.773 23.2951 115.595 23.227 115.425 23.2439C115 23.2859 114.507 23.7206 113.946 24.5479C113.383 25.354 112.731 26.5654 111.991 28.1822C111.795 28.5874 111.644 29.0097 111.537 29.449C111.428 29.8671 111.359 30.1419 111.329 30.2735ZM128.017 33.0269C127.771 32.9227 127.589 32.8227 127.473 32.7271C127.377 32.6293 127.321 32.4955 127.304 32.3257C127.283 32.1134 127.339 31.8078 127.471 31.4088C127.622 30.9866 127.879 30.3288 128.24 29.4354C128.34 29.1469 128.536 28.6344 128.828 27.8981C129.568 26.0669 129.897 24.7373 129.816 23.9094C129.79 23.869 129.773 23.8064 129.765 23.7215C129.744 23.5092 129.895 23.3013 130.218 23.0978C130.275 23.0278 130.48 22.8253 130.833 22.4903C131.207 22.1531 131.491 21.7819 131.687 21.3767C131.9 20.7125 132.181 19.9772 132.53 19.1709C132.877 18.3434 133.483 16.9971 134.349 15.1321C135.183 13.163 136.099 11.3681 137.096 9.74727C137.279 9.42904 137.489 9.1724 137.727 8.97734C137.986 8.78018 138.211 8.67215 138.402 8.65323C139.06 8.58808 139.754 8.77664 140.484 9.21889C141.235 9.65905 141.742 10.1234 142.005 10.6119C142.104 10.7521 142.178 11.0663 142.227 11.5546C142.292 12.2127 142.328 13.3346 142.335 14.9203C142.32 15.2005 142.32 15.6399 142.337 16.2385C142.368 17.2002 142.373 18.2286 142.353 19.324C142.355 21.7248 142.369 23.5992 142.395 24.9472C142.421 26.2951 142.492 27.5529 142.608 28.7206C142.667 29.315 142.72 29.7491 142.769 30.023L142.791 30.2459L142.832 30.9815C142.717 31.1215 142.468 31.2104 142.086 31.2482C141.662 31.2903 141.23 31.258 140.79 31.1514C140.353 31.0661 140.104 30.93 140.043 30.7431C140.019 30.724 139.985 30.7059 139.941 30.6889C139.896 30.6718 139.865 30.5784 139.849 30.4086L139.811 29.7049L139.73 27.9121L139.407 23.0242L138.996 23.097C138.572 23.139 137.678 23.3133 136.315 23.6197C134.973 23.9241 134.127 24.1472 133.776 24.289C133.585 24.308 133.364 24.4584 133.113 24.7405C132.863 25.0226 132.651 25.3758 132.479 25.8002C132.436 26.0188 132.318 26.3413 132.124 26.7678C131.929 27.1731 131.834 27.4075 131.84 27.4712C131.721 27.5688 131.616 27.6971 131.525 27.8562C131.452 27.992 131.408 28.0822 131.391 28.1267C131.414 28.3602 131.261 28.9863 130.933 30.0049C130.625 31.0002 130.299 31.8256 129.957 32.4812L129.217 33.7764L128.017 33.0269ZM134.543 21.319C134.69 21.2831 134.983 21.2112 135.422 21.1034C135.86 20.9743 136.247 20.8824 136.585 20.8275C137.579 20.4719 138.267 20.2751 138.649 20.2373C138.861 20.2163 139.012 20.2228 139.101 20.2569C139.173 20.3355 139.243 20.3929 139.311 20.429C139.398 20.4418 139.452 20.4472 139.473 20.4451C139.499 20.2711 139.554 19.0972 139.639 16.9236C139.724 14.75 139.742 13.4191 139.694 12.9308C139.66 12.5911 139.621 12.3056 139.577 12.0741C139.531 11.8215 139.494 11.6644 139.466 11.6028C139.275 11.6217 138.89 12.1743 138.312 13.2606C137.731 14.3256 137.186 15.5265 136.675 16.8634C136.273 17.7821 135.976 18.2509 135.785 18.2699C135.651 18.4332 135.382 18.9636 134.978 19.8611C134.574 20.7586 134.429 21.2446 134.543 21.319ZM146.274 28.4862C145.843 28.679 145.511 28.7869 145.277 28.81C144.916 28.8457 144.542 28.7435 144.154 28.5032C143.804 28.2163 143.613 27.9136 143.581 27.5952C143.529 27.0644 143.868 26.4842 144.599 25.8545C144.996 25.5364 145.311 25.3659 145.545 25.3428C145.715 25.3259 146.01 25.3825 146.43 25.5124C147.109 25.8739 147.47 26.2776 147.515 26.7234C147.573 27.3179 147.16 27.9055 146.274 28.4862Z" fill="white"/>
<path d="M71.6132 1C71.9075 1.04105 72.2058 1.07184 72.498 1.12316C73.8275 1.35715 75.1578 1.59388 76.4886 1.83335C76.693 1.8703 76.8973 1.88877 77.1017 1.94008C77.4797 2.03861 77.8924 2.08376 78.2173 2.27465C79.2204 2.83619 80.1893 3.45716 81.1189 4.1343C82.3571 5.08054 83.4769 6.15609 84.2145 7.58469C85.0952 9.28834 85.2934 11.0905 85.1586 12.9666C85.0707 14.1981 84.568 15.3106 84.2186 16.456C83.5607 18.603 82.4225 20.4996 81.2169 22.3469C79.9072 24.3523 78.3849 26.1914 76.9668 28.1105C75.5998 29.9579 73.9283 31.526 72.3407 33.1661C71.4297 34.1367 70.4636 35.0537 69.4473 35.9124C67.9042 37.1522 66.2542 38.2513 64.5167 39.1965C63.2539 39.9026 61.9932 40.6149 60.7263 41.3148C60.0898 41.6539 59.5731 42.1822 59.2469 42.8276C58.7013 43.9093 58.166 44.9951 57.6122 46.0707C57.493 46.3213 57.3232 46.5443 57.1137 46.7254C57.04 46.7838 56.954 46.8244 56.8622 46.8442C56.7704 46.8639 56.6754 46.8622 56.5844 46.8392C56.4933 46.8162 56.4088 46.7725 56.3373 46.7115C56.2657 46.6505 56.2091 46.5738 56.1717 46.4873C56.0672 46.2625 56.0088 46.0189 56 45.771C55.9633 44.8884 55.9592 44.0016 55.9408 43.117C55.9349 43.0577 55.926 42.9988 55.9142 42.9405C55.6751 42.9405 55.4361 42.9405 55.195 42.9405C54.5533 42.9569 53.9117 42.9836 53.2701 42.9938C53.1824 42.9904 53.096 43.0167 53.0249 43.0684C52.9538 43.1201 52.902 43.1943 52.8778 43.2791C52.7348 43.6096 52.5509 43.9236 52.4058 44.2562C52.2015 44.7488 51.9971 45.2455 51.7928 45.7463C51.1471 47.4726 50.4953 49.1947 49.8761 50.9291C49.4675 52.058 49.1324 53.2116 48.7462 54.3467C48.595 54.7962 48.3947 55.2293 48.1822 55.7527C48.9137 55.5002 49.6125 55.3422 50.246 55.0281C52.8451 53.7719 55.2563 52.214 57.2608 50.1122C58.8321 48.4701 60.2768 46.7028 61.2923 44.6359C61.4966 44.2254 61.6478 43.7738 61.842 43.351C61.9212 43.1498 62.0393 42.9663 62.1893 42.8111C62.2525 42.7635 62.3255 42.7307 62.4029 42.715C62.4803 42.6994 62.5602 42.7014 62.6368 42.7208C62.7028 42.7555 62.7594 42.8058 62.8017 42.8673C62.8441 42.9287 62.8709 42.9997 62.88 43.0739C62.8586 43.3615 62.8148 43.647 62.7492 43.9278C62.6729 44.2276 62.6203 44.533 62.5919 44.8412C62.5842 44.9456 62.6032 45.0503 62.647 45.1453C62.6909 45.2403 62.7581 45.3225 62.8424 45.3841C62.9267 45.4458 63.0252 45.4848 63.1287 45.4976C63.2321 45.5103 63.3371 45.4963 63.4337 45.4569C64.203 45.1718 64.9065 44.7326 65.5016 44.1659C66.5376 43.2483 67.2507 42.0948 67.878 40.8817C68.1293 40.3932 68.3807 39.9047 68.6586 39.4305C68.8159 39.1617 69.0182 38.864 69.388 38.9687C69.7579 39.0734 69.7456 39.4305 69.7538 39.7466C69.7543 40.0274 69.7734 40.3079 69.811 40.5861C69.8276 40.7703 69.8968 40.9458 70.0103 41.0914C70.1237 41.237 70.2766 41.3467 70.4506 41.4072C70.6188 41.4702 70.8031 41.4758 70.9748 41.4231C71.1465 41.3704 71.2962 41.2624 71.4007 41.1157C71.8564 40.5266 72.2651 39.9026 72.6799 39.2828C73.0068 38.7942 73.2929 38.279 73.6402 37.8008C73.787 37.6122 73.9723 37.4575 74.1838 37.3472C74.2507 37.316 74.324 37.3009 74.3977 37.303C74.4715 37.3052 74.5437 37.3245 74.6088 37.3595C74.655 37.4161 74.6881 37.4822 74.7058 37.5532C74.7234 37.6242 74.7252 37.6982 74.7109 37.77C74.6405 37.9635 74.5558 38.1515 74.4576 38.3324C74.3485 38.5537 74.2707 38.7893 74.2267 39.0323C74.2133 39.1315 74.2254 39.2325 74.2618 39.3257C74.2982 39.4189 74.3577 39.5011 74.4347 39.5647C74.5117 39.6283 74.6036 39.671 74.7017 39.6888C74.7997 39.7066 74.9007 39.699 74.995 39.6666C75.2562 39.6045 75.5041 39.4953 75.7265 39.3443C76.5888 38.7142 77.449 38.0799 78.2766 37.4067C78.9591 36.8504 79.7069 36.3168 80.2178 35.623C80.8277 34.7615 81.341 33.835 81.7482 32.8602C83.2853 29.435 84.9986 26.0923 86.8811 22.8457C88.667 19.7483 90.3752 16.5976 92.3859 13.6316C93.1714 12.4439 94.0508 11.3216 95.0157 10.2756C95.3386 9.9113 95.7299 9.61446 96.1671 9.40209C96.6043 9.18972 97.0789 9.06597 97.5637 9.03792C98.5445 8.98661 99.5519 9.44844 99.5621 10.8072C99.5588 11.3876 99.4515 11.9626 99.2454 12.5047C98.6038 14.2782 97.815 15.9695 96.6708 17.4823C95.9495 18.4326 95.2404 19.3953 94.5927 20.399C93.3994 22.2463 91.9833 23.9417 90.6695 25.707C89.1976 27.7342 87.5702 29.6427 85.8022 31.4152C85.4855 31.7272 85.226 32.0967 84.9277 32.4292C84.6784 32.7083 84.4148 32.9731 84.1532 33.2399C83.8413 33.5588 83.5259 33.8742 83.2072 34.1862C82.9368 34.4736 82.6488 34.7437 82.3449 34.9949C81.6451 35.5395 81.1032 36.2624 80.7756 37.0885C80.3669 38.0594 79.901 39.0118 79.5108 39.993C79.1205 40.9741 78.7956 41.9757 78.436 42.9671C78.2582 43.4557 78.0661 43.938 77.8863 44.4245C77.8723 44.4919 77.8675 44.561 77.872 44.6297C78.1622 44.3732 78.4298 44.1535 78.675 43.9134C79.0262 43.5851 79.4625 43.3631 79.9337 43.273C80.1953 43.2135 80.2934 43.1047 80.2688 42.7947C80.2657 42.4224 80.302 42.0509 80.3771 41.6863C80.6407 39.7754 81.9975 38.6526 83.3236 37.4785C85.4099 35.6312 87.8966 34.4099 90.1995 32.9033C92.7475 31.2387 95.5122 30.0051 98.2462 28.6873C101.619 27.0504 105.127 25.7098 108.731 24.6807C110.036 24.3092 111.364 24.0074 112.695 23.7262C113.398 23.5764 114.125 23.5415 114.84 23.4471C115.28 23.3875 115.715 23.2993 116.154 23.2418C116.35 23.2206 116.547 23.2282 116.74 23.2644C116.834 23.2808 116.914 23.3793 117 23.4409C116.937 23.5251 116.89 23.6605 116.808 23.6872C116.454 23.796 116.095 23.8925 115.731 23.9623C115.026 24.1101 114.315 24.2291 113.612 24.3851C111.019 24.9639 108.414 25.5202 105.919 26.4562C104.151 27.1171 102.445 27.9463 100.688 28.6298C97.7415 29.7752 94.9503 31.2469 92.202 32.7843C90.2158 33.8947 88.3646 35.2474 86.4091 36.4112C85.1991 37.1533 84.0486 37.9892 82.9681 38.9112C82.2317 39.5112 81.6494 40.2798 81.2701 41.1527C81.0657 41.635 80.9064 42.14 80.7388 42.6387C80.6387 42.9425 80.7817 43.1498 81.0187 43.3346C81.125 43.4187 81.2639 43.6342 81.2231 43.6876C81.0957 43.8585 80.9402 44.0064 80.7633 44.1248C80.7368 44.1453 80.6203 44.0714 80.559 44.0222C80.4889 43.9505 80.395 43.9072 80.2952 43.9004C80.1954 43.8936 80.0966 43.9238 80.0175 43.9852C79.4154 44.3327 78.9014 44.8153 78.5156 45.3954C78.2051 45.8716 77.8005 46.2862 77.4572 46.7418C76.4519 48.074 76.0269 49.6463 75.6366 51.2309C75.4016 52.1627 75.0685 53.0782 74.8438 54.0059C74.4351 55.6829 74.1082 57.3783 73.7056 59.0574C73.3868 60.3833 73.0497 61.7093 72.6329 63.0065C72.3898 63.6559 72.0745 64.2756 71.6929 64.8539C71.592 65.0316 71.4525 65.1842 71.2849 65.3004C71.1172 65.4166 70.9256 65.4934 70.7244 65.525C70.1604 65.6071 69.529 65.092 69.4126 64.4454C69.2777 63.6839 69.3982 62.9306 69.5311 62.1875C70.0857 59.133 71.0796 56.1758 72.4817 53.4086C73.1662 52.0273 73.9651 50.6992 74.7641 49.3794C75.4361 48.2328 75.9783 47.0142 76.3803 45.7463C76.9934 43.9319 77.729 42.1625 78.4094 40.3706C78.5286 40.1085 78.6158 39.8328 78.6689 39.5496C78.6808 39.4468 78.6709 39.3427 78.6399 39.244C78.6089 39.1453 78.5575 39.0543 78.4891 38.9769C78.4017 38.9312 78.3046 38.9074 78.2061 38.9074C78.1076 38.9074 78.0105 38.9312 77.9231 38.9769C77.5681 39.209 77.2301 39.4662 76.9116 39.7466C76.0698 40.4301 75.1257 40.8325 74.0264 40.7729C73.6962 40.7436 73.3642 40.8023 73.0639 40.9432C72.7635 41.0842 72.5056 41.3023 72.3161 41.5755C71.509 42.6203 70.6958 42.807 69.4698 42.2877C68.7219 41.9778 68.3623 42.0455 67.8351 42.6736C67.4264 43.156 67.0709 43.6856 66.6663 44.172C65.9173 45.0818 64.9718 45.8083 63.9016 46.2964C63.4568 46.5244 62.9557 46.6178 62.459 46.5653C62.1816 46.5155 61.8959 46.541 61.6316 46.6392C61.3672 46.7373 61.1337 46.9046 60.9551 47.1236C60.5179 47.6368 60.0704 48.1499 59.6842 48.7C58.9489 49.722 58.0818 50.6414 57.1055 51.4341C55.9571 52.3906 54.821 53.3676 53.6073 54.2317C52.3596 55.1053 51.0106 55.8229 49.5901 56.3685C49.2016 56.5107 48.7987 56.6092 48.3886 56.662C48.2496 56.6725 48.1175 56.727 48.0114 56.8178C47.9053 56.9085 47.8306 57.0308 47.7981 57.1669C46.9623 59.7244 46.1389 62.2881 45.2704 64.8354C44.5553 66.9311 43.8401 69.0268 43.0228 71.0855C42.3913 72.6956 41.6765 74.2714 40.8813 75.8064C39.8046 77.8465 38.5635 79.7948 37.1706 81.6317C35.4449 83.9568 33.329 85.9621 30.918 87.5575C30.0455 88.1322 29.2833 88.8711 28.3148 89.3001C27.0888 89.842 25.8873 90.4557 24.6367 90.9196C23.1645 91.4406 21.6329 91.7737 20.078 91.911C18.7458 92.0465 17.3931 92.0691 16.071 91.675C15.1515 91.3999 14.2116 91.1885 13.2757 90.9709C12.4114 90.7657 11.7065 90.2997 11.0281 89.7394C8.66089 87.8357 6.94025 85.2409 6.10361 82.3131C5.61404 80.5775 5.27225 78.8031 5.08194 77.0093C5.03149 76.6089 5.0042 76.2059 5.0002 75.8023C5.01246 74.072 4.96342 72.3191 5.07989 70.5826C5.18819 68.9672 5.43135 67.3559 5.6929 65.757C6.0868 63.22 6.72739 60.7278 7.60547 58.3164C8.21962 56.6791 9.11144 55.161 10.2414 53.8294C10.9776 52.9736 11.9373 52.3416 13.0122 52.0047C14.5046 51.4768 16.0959 51.2916 17.6689 51.4628C18.8894 51.5711 20.0667 51.9693 21.1038 52.6246C22.1255 53.3122 22.6731 54.3734 22.9142 55.5721C23.0409 56.1981 23.0879 56.8406 23.1635 57.4769C23.1863 57.5788 23.1755 57.6854 23.1328 57.7806C23.0593 57.8874 22.9285 58.0229 22.8263 58.0187C22.7242 58.0146 22.5995 57.8545 22.5648 57.7396C22.3605 57.0561 22.2522 56.3418 21.9927 55.687C21.1631 53.577 19.5938 52.4213 17.3379 52.1976C16.5328 52.1176 15.7298 52.0273 14.9206 52.175C12.8773 52.5486 11.3284 53.6919 10.1331 55.336C8.87457 57.0648 7.95949 59.021 7.43791 61.0976C7.12324 62.3292 6.7207 63.5361 6.49797 64.782C6.12121 66.7129 5.86259 68.6651 5.72355 70.6278C5.60244 72.5419 5.61131 74.4621 5.75011 76.375C5.99771 79.2052 6.77703 81.9626 8.04683 84.5012C8.66733 85.7254 9.41455 86.8806 10.2761 87.9475C11.212 89.1503 12.487 89.7702 13.8806 90.2053C14.561 90.4229 15.2517 90.6158 15.9423 90.7903C17.3869 91.1911 18.8999 91.2779 20.3805 91.0448C24.1571 90.4033 27.7304 88.8782 30.8117 86.5928C31.5371 86.0612 32.1542 85.3797 32.8735 84.8378C34.6675 83.4852 36.0468 81.7589 37.281 79.9116C39.2444 76.9325 40.9181 73.7707 42.279 70.4697C42.9512 68.8687 43.5438 67.2308 44.1486 65.601C44.4654 64.7492 44.7392 63.8809 45.0211 63.0147C45.3808 61.9022 45.7309 60.7904 46.0714 59.6793C46.2942 58.967 46.5005 58.2425 46.7151 57.5364C46.7151 57.5159 46.7294 57.4974 46.7355 57.4769C46.8929 56.9104 46.8806 56.896 46.3125 56.9493C45.8691 56.9904 45.4257 57.054 44.9823 57.0807C43.648 57.1567 42.4547 56.6846 41.3493 56.0093C39.8409 55.1082 38.4814 53.9767 37.3198 52.6553C36.0099 51.1512 35.0966 49.341 34.6634 47.3905C34.265 45.6622 34.1689 43.9216 34.0852 42.1728C34.0545 41.5693 34.1935 40.9556 34.2895 40.348C34.4673 39.0919 34.6144 37.8275 34.8637 36.5857C35.0966 35.4239 35.4583 34.2888 35.7403 33.1373C36.719 29.1368 38.4518 25.4524 40.4931 21.9179C41.5761 20.0418 42.7878 18.2232 44.0526 16.4744C45.91 13.8923 48.1393 11.6262 50.4401 9.44844C53.148 6.91094 56.3011 4.90026 59.7394 3.51852C61.0839 2.96843 62.4509 2.4717 63.826 1.98729C65.0664 1.54804 66.3802 1.49057 67.6696 1.3202C68.3459 1.22989 69.0161 1.11494 69.6884 1H71.6132ZM75.9982 2.64207C75.8344 2.56903 75.6666 2.5053 75.4956 2.45118C74.9868 2.32186 74.4739 2.18434 73.9651 2.09198C73.4563 1.99961 72.9005 1.94008 72.3652 1.88672C70.8062 1.72745 69.2332 1.77299 67.6859 2.02219C67.3283 2.08171 66.9564 2.05503 66.607 2.13713C65.7897 2.33007 64.9519 2.52507 64.155 2.79396C63.1599 3.12853 62.1832 3.52673 61.2106 3.92083C60.4177 4.24514 59.6351 4.59408 58.8566 4.94712C57.7982 5.43358 56.7009 5.85642 55.7078 6.45577C53.9935 7.45688 52.4047 8.66075 50.9755 10.0416C50.0805 10.9263 48.975 11.5975 48.2885 12.71C48.1794 12.8618 48.0592 13.0052 47.9288 13.139C47.0788 14.1181 46.1634 15.0499 45.389 16.0865C43.5712 18.4718 41.9502 21.0021 40.5421 23.6523C39.1819 26.2132 38.0107 28.8709 37.0378 31.604C36.4029 33.3334 35.8653 35.0973 35.4276 36.8874C35.2499 37.6735 35.1641 38.4843 35.0558 39.2869C34.925 40.2434 34.7819 41.2019 34.7043 42.1605C34.5776 43.7163 34.9454 45.2229 35.2601 46.7275C35.6372 48.3943 36.3122 49.9785 37.2524 51.4033C38.0042 52.4492 38.9111 53.3733 39.9414 54.1435C41.1674 55.0548 42.422 55.8943 43.9198 56.272C44.3202 56.3769 44.732 56.4314 45.1458 56.4342C45.6934 56.4342 46.241 56.3418 46.7805 56.3131C46.8787 56.3173 46.9755 56.2876 47.0546 56.229C47.1338 56.1704 47.1906 56.0863 47.2157 55.9908C47.3546 55.5803 47.4813 55.1698 47.6366 54.7839C48.0453 53.733 48.4887 52.6943 48.8729 51.6332C49.3551 50.3133 49.7842 48.9648 50.2501 47.647C50.6587 46.4647 51.1042 45.2907 51.5251 44.1104C51.6416 43.7841 51.7295 43.4474 51.8377 43.0841C51.1532 43.3202 50.5423 43.5973 49.9007 43.7369C48.4151 44.0591 46.9235 44.3834 45.4176 44.5723C44.3448 44.7057 43.2434 44.6174 42.1482 44.6277C42.0863 44.6238 42.0248 44.6149 41.9643 44.601C40.9432 44.4283 39.9442 44.1433 38.9851 43.7512C37.8878 43.312 36.8212 42.8358 36.102 41.8321C35.9809 41.6922 35.904 41.5193 35.8813 41.3353C35.8886 41.2426 35.9145 41.1523 35.9573 41.0697C36.0001 40.9872 36.0591 40.9142 36.1306 40.855C36.3145 40.7175 36.4432 40.9084 36.5392 41.0603C36.5848 41.1293 36.6257 41.2013 36.6618 41.2758C37.026 42.0337 37.6246 42.653 38.368 43.041C39.641 43.7287 41.0407 43.9852 42.4547 44.1351C43.7747 44.2746 45.0824 44.094 46.3861 43.8846C48.1985 43.5932 50.0069 43.2689 51.6988 42.5217C51.9104 42.4276 52.0866 42.2679 52.2015 42.0661C52.5243 41.4298 52.8145 40.7729 53.0903 40.1161C53.736 38.6013 54.3511 37.0721 55.0151 35.5655C55.3911 34.7116 55.902 33.9235 56.2412 33.0532C57.6785 29.4302 59.3052 25.8859 61.1145 22.4351C62.3651 20.0706 63.5441 17.6649 64.8641 15.3414C65.9613 13.4695 67.173 11.6734 68.3439 9.87127C68.869 9.06255 69.4514 8.29078 70.0337 7.52106C70.3116 7.1516 70.6467 6.84371 71.1759 6.88681C71.5294 6.91555 71.6909 7.02844 71.6132 7.36301C71.495 7.83265 71.3427 8.29297 71.1576 8.7403C71.0309 9.05845 70.8265 9.35607 70.9389 9.73785C71.7747 8.56583 72.547 7.35685 73.3705 6.18483C74.194 5.0128 75.0869 3.85515 75.9921 2.64207H75.9982ZM57.0442 41.3559C57.5182 41.2348 57.9555 41.1506 58.3683 41.009C58.9138 40.816 59.439 40.5985 59.6883 39.9827C59.9376 39.3669 60.2665 38.7635 60.5547 38.1518C60.9878 37.2322 61.3883 36.3045 61.8481 35.3952C62.8902 33.3426 63.9977 31.3228 65.001 29.2518C65.9491 27.2936 66.8134 25.2944 67.6859 23.2993C68.679 21.0168 69.8825 18.8575 71.082 16.6859C72.2814 14.5142 73.6014 12.4945 74.9786 10.4624C75.183 10.1545 75.4179 9.84664 75.657 9.56954C76.1229 9.01329 76.5908 8.45704 77.0874 7.92747C77.2733 7.72221 77.5369 7.5929 77.8107 7.77969C77.9218 7.85288 78.0003 7.96654 78.0296 8.09671C78.059 8.22689 78.0369 8.36342 77.968 8.47757C77.7558 8.9944 77.5016 9.49281 77.2079 9.96774C75.091 13.0466 73.1641 16.2507 71.2475 19.4568C70.4301 20.8177 69.7088 22.2299 68.9528 23.6236C68.3745 24.6889 67.8147 25.7665 67.2405 26.8338C66.2842 28.6073 65.6058 30.4997 64.8334 32.3573C64.1523 34.024 63.4712 35.6928 62.7901 37.3636C62.7157 37.5457 62.6622 37.7358 62.6307 37.9301C62.5367 38.5459 62.9392 38.8722 63.5175 38.6793C63.6059 38.6494 63.6919 38.6131 63.775 38.5705C65.806 37.5668 67.5981 36.2039 69.3512 34.7958C70.3198 34.0199 71.1351 33.0552 72.0403 32.1972C74.0479 30.2674 75.883 28.1643 77.5246 25.9122C78.6587 24.3769 79.9092 22.9278 80.8594 21.259C81.3416 20.4113 81.973 19.6375 82.3633 18.7549C82.9763 17.357 83.4973 15.91 83.9775 14.4588C84.5578 12.6977 84.613 10.9119 83.9346 9.15287C83.3911 7.74685 82.7086 6.43935 81.3089 5.684C81.1706 5.59186 81.0382 5.49109 80.9125 5.38227C79.7621 4.57355 78.6648 3.68068 77.3448 3.1429C77.2885 3.12042 77.228 3.11079 77.1676 3.11469C77.1071 3.1186 77.0483 3.13594 76.9954 3.16548C76.3842 3.72325 75.8057 4.31607 75.2626 4.94096C74.4453 5.95699 73.675 7.01613 72.923 8.08552C71.8727 9.57775 70.8327 11.0741 69.9213 12.6628C68.6054 14.9391 67.171 17.1477 65.9286 19.4733C64.8947 21.413 63.873 23.3547 62.8902 25.3211C60.894 29.3709 59.2227 33.5742 57.8922 37.8911C57.6082 38.7983 57.3609 39.7179 57.1137 40.6375C57.0706 40.8746 57.0474 41.1149 57.0442 41.3559ZM98.8326 11.4682L98.755 11.4436C98.755 10.3967 98.1256 9.9349 97.1203 10.2325C96.3029 10.4609 95.5842 10.9554 95.077 11.6385C94.2392 12.7613 93.4075 13.8964 92.6249 15.0561C92.0119 15.9859 91.4664 16.9712 90.8901 17.9297C89.9686 19.4671 89.0246 20.9942 88.1275 22.548C87.4349 23.7529 86.828 25.0111 86.1271 26.2078C85.2501 27.7129 84.4667 29.271 83.7813 30.8733C83.698 31.0518 83.6428 31.2422 83.6179 31.4378C83.5852 31.7662 83.8386 31.9386 84.1165 31.7641C84.3606 31.6074 84.5821 31.4174 84.7744 31.1997C86.2497 29.5576 87.7638 27.932 89.1717 26.2263C90.5142 24.6027 91.7586 22.897 93.0193 21.2077C94.0056 19.8858 94.9693 18.5462 95.9106 17.1887C96.4358 16.4334 96.9323 15.6472 97.3778 14.8447C97.7619 14.1591 98.0868 13.4366 98.3994 12.7162C98.5648 12.3078 98.7094 11.8913 98.8326 11.4682ZM70.2728 10.3126C70.1768 10.1751 70.1134 9.99237 69.9888 9.93285C69.918 9.91105 69.8434 9.9049 69.77 9.91482C69.6966 9.92474 69.6263 9.9505 69.5638 9.99032C69.4001 10.1008 69.261 10.244 69.1551 10.4111C68.3684 11.618 67.5695 12.8188 66.8216 14.0503C65.9409 15.5036 65.1072 16.9855 64.2572 18.447C64.012 18.8575 63.7382 19.268 63.5216 19.7093C62.7676 21.2221 62.0177 22.7369 61.2943 24.2619C60.0234 26.9303 58.7463 29.613 57.5203 32.3101C56.4986 34.5433 55.5546 36.8073 54.5963 39.0672C54.1876 40.0299 53.8382 41.0172 53.4642 41.9942C53.4309 42.1058 53.4056 42.2197 53.3886 42.3349C53.5082 42.3806 53.6347 42.4056 53.7626 42.4088C54.4369 42.3001 55.1071 42.1687 55.7814 42.0537C55.8803 42.0483 55.9745 42.0095 56.0487 41.9436C56.1229 41.8776 56.1727 41.7884 56.1901 41.6904C56.2718 41.2984 56.329 40.9022 56.4291 40.5143C56.7663 39.2048 57.0237 37.8624 57.4855 36.5959C58.6911 33.281 59.9376 29.9784 61.2719 26.7148C61.9503 25.0501 62.8616 23.482 63.6462 21.8604C64.9475 19.1533 66.4076 16.5261 68.019 13.9929C68.6483 13.0056 69.3226 12.045 69.9602 11.0618C70.0859 10.8217 70.1906 10.571 70.2728 10.3126ZM74.0489 53.0063L73.9529 52.9755C73.8733 53.0495 73.8014 53.1313 73.7383 53.2198C73.3296 53.9197 72.921 54.6135 72.5368 55.3258C71.8012 56.6948 71.46 58.2096 70.9982 59.6752C70.754 60.5519 70.5642 61.4431 70.4301 62.3435C70.3609 62.7295 70.3444 63.1231 70.3811 63.5135C70.401 63.6105 70.4438 63.7013 70.5061 63.7781C70.5684 63.855 70.6481 63.9156 70.7387 63.9548C70.8899 64.002 71.1187 63.8809 71.2781 63.7762C71.3969 63.6761 71.4877 63.5467 71.5417 63.4006C71.7498 62.9843 71.9346 62.5567 72.0955 62.1198C72.7779 60.0775 73.1825 57.9654 73.5953 55.8574C73.7383 55.1267 73.8691 54.3918 73.9937 53.657C74.0305 53.4476 74.0326 53.228 74.0489 53.0125V53.0063ZM58.7238 42.0558L58.6298 41.984C58.1026 42.1461 57.5734 42.3021 57.0483 42.4766C57.0019 42.4975 56.9609 42.529 56.9286 42.5685C56.8964 42.6081 56.8737 42.6546 56.8623 42.7044C56.8024 43.5514 56.7554 44.4012 56.7213 45.2537C56.7213 45.342 56.8174 45.4364 56.8685 45.5288C56.9461 45.4672 57.0503 45.422 57.0973 45.344C57.4447 44.7673 57.8084 44.1987 58.1088 43.5973C58.354 43.1108 58.5195 42.5772 58.7218 42.062L58.7238 42.0558Z" fill="white" stroke="white"/>
</svg>
